<svg width="59" height="57" viewBox="0 0 59 57" fill="none" xmlns="http://www.w3.org/2000/svg">
<path d="M58.9872 54.762H54.9065L54.8391 23.9291L51.5446 22.0103L51.621 54.762H50.2508L50.1714 21.2065L47.6691 19.7484L47.7544 54.7589H46.3812L46.2943 18.9492L42.9519 17.0014L39.6245 18.9736L39.7113 54.6796V54.7605H38.3426L38.2573 19.7865L35.7669 21.2645L35.8463 54.7605H34.4731L34.3967 22.0759L31.1187 24.0206L31.1891 54.7605H30.6425L30.3085 6.98817L27.1773 5.22194L27.5367 54.762H26.2369L25.8655 4.48372L23.483 3.13997L23.8753 54.762H22.5815V53.7233L22.1801 2.40175L18.9935 0.608063L15.8757 2.5192L16.271 53.7126V54.762H14.9787L14.5878 3.3047L12.2607 4.73386L12.6291 54.762H11.3367L10.9788 5.52699L7.90896 7.40914L8.23841 54.7696H0.23877V56.3177H58.9872V54.762ZM45.7837 32.6459L44.7115 32.6672L44.6905 31.5752L45.7627 31.5569L45.7837 32.6459ZM45.7493 30.8156L44.6771 30.8354L44.6576 29.7464L45.7298 29.725L45.7493 30.8156ZM45.7163 28.9853L44.6441 29.0082L44.6232 27.9161L45.6954 27.8932L45.7163 28.9853ZM45.6819 27.2175L44.6097 27.2389L44.5917 26.1483L45.6639 26.1285L45.6819 27.2175ZM45.6504 25.3872L44.5782 25.4055L44.5573 24.3135L45.628 24.2952L45.6504 25.3872ZM45.5965 22.4618L45.6145 23.5539L44.5438 23.5722L44.5243 22.4832L45.5965 22.4618ZM43.5584 32.6917L42.4892 32.7145L42.4683 31.6225L43.5405 31.6041L43.5584 32.6917ZM43.527 30.8614L42.4548 30.8812L42.4368 29.7891L43.5045 29.7693L43.527 30.8614ZM43.491 29.0311L42.4218 29.0539L42.4009 27.9619L43.4731 27.939L43.491 29.0311ZM43.4596 27.2633L42.3874 27.2862L42.3694 26.1941L43.4386 26.1743L43.4596 27.2633ZM43.4057 24.3409L43.4237 25.433L42.3559 25.4513L42.335 24.3592L43.4057 24.3409ZM41.3796 32.7298L40.3074 32.7527L40.2864 31.6606L41.3586 31.6377L41.3796 32.7298ZM41.3451 30.8995L40.2729 30.9208L40.2549 29.8288L41.3257 29.8105L41.3451 30.8995ZM41.3122 29.0692L40.2415 29.0875L40.219 27.9985L41.2912 27.9771L41.3122 29.0692ZM41.2777 27.3014L40.207 27.3197L40.1876 26.2307L41.2598 26.2093L41.2777 27.3014ZM41.2463 25.4711L40.1741 25.4925L40.1531 24.4004L41.2238 24.3821L41.2463 25.4711ZM41.1924 22.5488L41.2103 23.6393L40.1396 23.6591L40.1202 22.5701L41.1924 22.5488ZM41.4469 54.7071L41.4305 50.3418L43.0283 49.3946L44.6336 50.3296L44.6501 54.7681H41.4469V54.7071ZM20.6003 7.4244H21.5497V8.38835H20.6003V7.4244ZM20.6003 9.04573H21.5497V10.0097H20.6003V9.04573ZM20.6003 10.664H21.5497V11.628H20.6003V10.664ZM20.6003 12.2274H21.5497V13.1837H20.6003V12.2274ZM20.6003 13.8457H21.5497V14.8005H20.6003V13.8457ZM20.6003 15.4655H21.5497V16.4295H20.6003V15.4655ZM20.6003 18.786H21.5497V19.7499H20.6003V18.786ZM20.6003 20.4073H21.5497V21.3713H20.6003V20.4073ZM20.6003 22.0256H21.5497V22.9895H20.6003V22.0256ZM20.6003 23.589H21.5497V24.5529H20.6003V23.589ZM20.6003 25.2103H21.5497V26.1727H20.6003V25.2103ZM20.6003 26.8271H21.5497V27.791H20.6003V26.8271ZM20.6003 30.1491H21.5497V31.1115H20.6003V30.1491ZM20.6003 31.7689H21.5497V32.7328H20.6003V31.7689ZM20.6003 33.3902H21.5497V34.3542H20.6003V33.3902ZM20.6003 34.9505H21.5497V35.9145H20.6003V34.9505ZM20.6003 36.5719H21.5497V37.5343H20.6003V36.5719ZM20.6003 38.1886H21.5497V39.1526H20.6003V38.1886ZM18.6355 7.4244H19.582V8.38835H18.6355V7.4244ZM18.6355 9.04573H19.582V10.0097H18.6355V9.04573ZM18.6355 10.664H19.582V11.628H18.6355V10.664ZM18.6355 12.2274H19.582V13.1837H18.6355V12.2274ZM18.6355 13.8457H19.582V14.8005H18.6355V13.8457ZM18.6355 15.4655H19.582V16.4295H18.6355V15.4655ZM18.6355 18.786H19.582V19.7499H18.6355V18.786ZM18.6355 20.4073H19.582V21.3713H18.6355V20.4073ZM18.6355 22.0256H19.582V22.9895H18.6355V22.0256ZM18.6355 23.589H19.582V24.5529H18.6355V23.589ZM18.6355 25.2103H19.582V26.1727H18.6355V25.2103ZM18.6355 26.8271H19.582V27.791H18.6355V26.8271ZM18.6355 30.1491H19.582V31.1115H18.6355V30.1491ZM18.6355 31.7689H19.582V32.7328H18.6355V31.7689ZM18.6355 33.3902H19.582V34.3542H18.6355V33.3902ZM18.6355 34.9505H19.582V35.9145H18.6355V34.9505ZM18.6355 36.5719H19.582V37.5343H18.6355V36.5719ZM18.6355 38.1886H19.582V39.1526H18.6355V38.1886ZM16.7083 7.4244H17.6577V8.38835H16.7083V7.4244ZM16.7083 9.04573H17.6577V10.0097H16.7083V9.04573ZM16.7083 10.664H17.6577V11.628H16.7083V10.664ZM16.7083 12.2274H17.6577V13.1837H16.7083V12.2274ZM16.7083 13.8457H17.6577V14.8005H16.7083V13.8457ZM16.7083 15.4655H17.6577V16.4295H16.7083V15.4655ZM16.7083 18.786H17.6577V19.7499H16.7083V18.786ZM16.7083 20.4073H17.6577V21.3713H16.7083V20.4073ZM16.7083 22.0256H17.6577V22.9895H16.7083V22.0256ZM16.7083 23.589H17.6577V24.5529H16.7083V23.589ZM16.7083 25.2103H17.6577V26.1727H16.7083V25.2103ZM16.7083 26.8271H17.6577V27.791H16.7083V26.8271ZM16.7083 30.1491H17.6577V31.1115H16.7083V30.1491ZM16.7083 31.7689H17.6577V32.7328H16.7083V31.7689ZM16.7083 33.3902H17.6577V34.3542H16.7083V33.3902ZM16.7083 34.9505H17.6577V35.9145H16.7083V34.9505ZM16.7083 36.5719H17.6577V37.5343H16.7083V36.5719ZM16.7083 38.1886H17.6577V39.1526H16.7083V38.1886ZM17.8943 53.7019L17.8269 49.9071L19.3244 48.992L20.8504 49.8537L20.9207 53.708L20.9402 54.7757H17.9138L17.8943 53.7019Z" fill="url(#paint0_linear_336_3586)"/>
<defs>
<linearGradient id="paint0_linear_336_3586" x1="29.6137" y1="102.935" x2="29.6137" y2="23.8666" gradientUnits="userSpaceOnUse">
<stop stop-color="#DDC18E"/>
<stop offset="1" stop-color="#B1915D"/>
</linearGradient>
</defs>
</svg>
