  <svg class="logo-default  d-none" width="151" height="70" viewBox="0 0 159 60" fill="none"
                            xmlns="http://www.w3.org/2000/svg">
                            <g clip-path="url(#clip0_336_3443)">
                                <path
                                    d="M157.406 54.5537H153.219L153.15 23.4932L149.77 21.5603L149.848 54.5537H148.442L148.361 20.7505L145.793 19.2816L145.881 54.5507H144.472L144.383 18.4765L140.953 16.5144L137.539 18.5011L137.628 54.4708V54.5522H136.224L136.136 19.3201L133.581 20.8089L133.662 54.5522H132.253L132.175 21.6264L128.812 23.5854L128.884 54.5522H128.323L127.98 6.42722L124.768 4.64794L125.136 54.5537H123.803L123.422 3.90427L120.977 2.5506L121.38 54.5537H120.052V53.5074L119.64 1.80693L116.371 0L113.172 1.92525L113.577 53.4966V54.5537H112.251L111.85 2.71655L109.462 4.15626L109.84 54.5537H108.514L108.147 4.95524L104.997 6.85129L105.335 54.5614H97.1273V56.121H157.406V54.5537ZM143.859 32.2744L142.759 32.2959L142.737 31.1957L143.837 31.1773L143.859 32.2744ZM143.823 30.4306L142.723 30.4505L142.703 29.3535L143.803 29.3319L143.823 30.4306ZM143.79 28.5867L142.689 28.6098L142.668 27.5096L143.768 27.4866L143.79 28.5867ZM143.754 26.8059L142.654 26.8274L142.636 25.7288L143.736 25.7089L143.754 26.8059ZM143.722 24.9621L142.622 24.9806L142.6 23.8804L143.699 23.862L143.722 24.9621ZM143.667 22.0151L143.685 23.1152L142.586 23.1337L142.566 22.0366L143.667 22.0151ZM141.575 32.3205L140.478 32.3435L140.457 31.2434L141.557 31.2249L141.575 32.3205ZM141.543 30.4766L140.443 30.4966L140.425 29.3965L141.52 29.3765L141.543 30.4766ZM141.506 28.6328L140.409 28.6559L140.388 27.5557L141.488 27.5327L141.506 28.6328ZM141.474 26.852L140.374 26.8751L140.355 25.7749L141.453 25.755L141.474 26.852ZM141.419 23.9081L141.437 25.0082L140.342 25.0267L140.32 23.9265L141.419 23.9081ZM139.34 32.3589L138.24 32.3819L138.218 31.2818L139.318 31.2587L139.34 32.3589ZM139.304 30.5151L138.204 30.5366L138.186 29.4364L139.285 29.418L139.304 30.5151ZM139.271 28.6712L138.172 28.6897L138.149 27.5926L139.249 27.5711L139.271 28.6712ZM139.235 26.8904L138.137 26.9089L138.117 25.8118L139.217 25.7903L139.235 26.8904ZM139.203 25.0466L138.103 25.0681L138.081 23.968L139.18 23.9496L139.203 25.0466ZM139.148 22.1027L139.166 23.2013L138.068 23.2213L138.048 22.1242L139.148 22.1027ZM139.409 54.4984L139.392 50.1009L141.032 49.1468L142.679 50.0886L142.696 54.5599H139.409V54.4984ZM118.019 6.86666H118.993V7.83773H118.019V6.86666ZM118.019 8.49996H118.993V9.47104H118.019V8.49996ZM118.019 10.1302H118.993V11.1013H118.019V10.1302ZM118.019 11.7051H118.993V12.6685H118.019V11.7051ZM118.019 13.3354H118.993V14.2972H118.019V13.3354ZM118.019 14.9671H118.993V15.9382H118.019V14.9671ZM118.019 18.3121H118.993V19.2832H118.019V18.3121ZM118.019 19.9454H118.993V20.9165H118.019V19.9454ZM118.019 21.5757H118.993V22.5467H118.019V21.5757ZM118.019 23.1506H118.993V24.1216H118.019V23.1506ZM118.019 24.7839H118.993V25.7534H118.019V24.7839ZM118.019 26.4126H118.993V27.3837H118.019V26.4126ZM118.019 29.7591H118.993V30.7286H118.019V29.7591ZM118.019 31.3909H118.993V32.3619H118.019V31.3909ZM118.019 33.0242H118.993V33.9953H118.019V33.0242ZM118.019 34.596H118.993V35.5671H118.019V34.596ZM118.019 36.2293H118.993V37.1989H118.019V36.2293ZM118.019 37.858H118.993V38.8291H118.019V37.858ZM116.003 6.86666H116.974V7.83773H116.003V6.86666ZM116.003 8.49996H116.974V9.47104H116.003V8.49996ZM116.003 10.1302H116.974V11.1013H116.003V10.1302ZM116.003 11.7051H116.974V12.6685H116.003V11.7051ZM116.003 13.3354H116.974V14.2972H116.003V13.3354ZM116.003 14.9671H116.974V15.9382H116.003V14.9671ZM116.003 18.3121H116.974V19.2832H116.003V18.3121ZM116.003 19.9454H116.974V20.9165H116.003V19.9454ZM116.003 21.5757H116.974V22.5467H116.003V21.5757ZM116.003 23.1506H116.974V24.1216H116.003V23.1506ZM116.003 24.7839H116.974V25.7534H116.003V24.7839ZM116.003 26.4126H116.974V27.3837H116.003V26.4126ZM116.003 29.7591H116.974V30.7286H116.003V29.7591ZM116.003 31.3909H116.974V32.3619H116.003V31.3909ZM116.003 33.0242H116.974V33.9953H116.003V33.0242ZM116.003 34.596H116.974V35.5671H116.003V34.596ZM116.003 36.2293H116.974V37.1989H116.003V36.2293ZM116.003 37.858H116.974V38.8291H116.003V37.858ZM114.026 6.86666H115V7.83773H114.026V6.86666ZM114.026 8.49996H115V9.47104H114.026V8.49996ZM114.026 10.1302H115V11.1013H114.026V10.1302ZM114.026 11.7051H115V12.6685H114.026V11.7051ZM114.026 13.3354H115V14.2972H114.026V13.3354ZM114.026 14.9671H115V15.9382H114.026V14.9671ZM114.026 18.3121H115V19.2832H114.026V18.3121ZM114.026 19.9454H115V20.9165H114.026V19.9454ZM114.026 21.5757H115V22.5467H114.026V21.5757ZM114.026 23.1506H115V24.1216H114.026V23.1506ZM114.026 24.7839H115V25.7534H114.026V24.7839ZM114.026 26.4126H115V27.3837H114.026V26.4126ZM114.026 29.7591H115V30.7286H114.026V29.7591ZM114.026 31.3909H115V32.3619H114.026V31.3909ZM114.026 33.0242H115V33.9953H114.026V33.0242ZM114.026 34.596H115V35.5671H114.026V34.596ZM114.026 36.2293H115V37.1989H114.026V36.2293ZM114.026 37.858H115V38.8291H114.026V37.858ZM115.243 53.4859L115.174 49.663L116.71 48.7411L118.276 49.6092L118.348 53.492L118.368 54.5676H115.263L115.243 53.4859Z"
                                    fill="white" />
                                <path
                                    d="M94.546 40.1106V40.4701H88.9746V40.1106C89.6875 40.1106 90.7585 39.897 90.7585 37.1113V25.1265V19.7841C90.7585 19.6181 90.7585 19.4583 90.7447 19.3139C90.6417 17.1505 89.7843 16.8186 89.1144 16.7833C89.0653 16.7833 89.0238 16.7833 88.9761 16.7833V16.4652H94.5183V16.7864C93.8069 16.7864 92.756 17.0353 92.756 19.7872V37.1113C92.7652 39.897 93.8407 40.1106 94.546 40.1106Z"
                                    fill="white" />
                                <path
                                    d="M83.016 43.0714C82.2862 43.4263 81.9558 43.7321 81.5778 44.4865C81.1538 43.8028 80.8234 43.497 80.1627 43.0484C80.8941 42.6473 81.2014 42.317 81.5778 41.6102C81.9082 42.3416 82.0972 42.718 83.016 43.0714ZM86.2427 43.0714C85.5113 43.4263 85.204 43.7321 84.8045 44.4865C84.4655 43.8925 83.9779 43.3969 83.3894 43.0484C84.1192 42.6473 84.4265 42.317 84.8045 41.6102C85.1395 42.3416 85.3515 42.718 86.2473 43.0714H86.2427Z"
                                    fill="white" />
                                <path
                                    d="M68.8064 43.0714C68.0765 43.4263 67.7462 43.7321 67.3682 44.4865C66.9441 43.8028 66.6138 43.497 65.9546 43.0484C66.6845 42.6473 66.9918 42.317 67.3682 41.6102C67.6986 42.3416 67.8875 42.718 68.8064 43.0714ZM72.033 43.0714C71.3017 43.4263 70.9959 43.7321 70.5949 44.4865C70.2559 43.8925 69.7682 43.3969 69.1798 43.0484C69.9096 42.6473 70.2169 42.317 70.5949 41.6102C70.9298 42.3416 71.1419 42.718 72.0377 43.0714H72.033Z"
                                    fill="white" />
                                <path
                                    d="M56.3499 36.2601C55.6201 36.615 55.2897 36.9208 54.9117 37.6752C54.4877 36.9914 54.1573 36.6857 53.4966 36.237C54.228 35.836 54.5353 35.5056 54.9117 34.7988C55.2467 35.5318 55.4357 35.9067 56.3499 36.2601ZM59.5766 36.2601C58.8452 36.615 58.5379 36.9208 58.1384 37.6752C57.7994 37.0812 57.3117 36.5856 56.7233 36.237C57.4531 35.836 57.7604 35.5056 58.1384 34.7988C58.478 35.5318 58.69 35.9067 59.5858 36.2601H59.5766Z"
                                    fill="white" />
                                <path
                                    d="M30.6488 34.4639C30.6042 34.3102 30.5489 34.1566 30.4874 34.0029C29.9373 32.6493 28.7635 31.5921 27.4144 31.0236C27.0989 30.8911 26.7718 30.7882 26.4372 30.7163C26.2513 30.6733 26.0546 30.6426 25.8687 30.618C25.8195 30.618 25.7826 30.618 25.7319 30.6042C25.1941 30.5734 24.5642 30.6042 24.0817 30.8454C23.65 31.0709 23.287 31.4085 23.0307 31.8226C22.7951 32.1715 22.647 32.5721 22.599 32.9904C22.5682 33.3054 22.599 33.6772 22.8464 33.8815C23.0077 33.9983 23.1939 34.0761 23.3903 34.1089C25.2694 34.5484 27.1486 34.9755 29.0277 35.4073C29.0299 36.1455 28.9084 36.8788 28.6682 37.5768C28.4279 38.2796 27.9658 38.8852 27.3514 39.3023C27.2879 39.3428 27.2223 39.3798 27.1547 39.413C26.9823 39.4996 26.8023 39.57 26.6169 39.6235C26.5547 39.6461 26.4904 39.6626 26.4249 39.6726C26.3397 39.6955 26.2529 39.7119 26.1652 39.7218C26.0774 39.7381 25.9886 39.7484 25.8994 39.7525C25.8091 39.7628 25.7183 39.7669 25.6274 39.7648H25.609C25.1414 39.7644 24.6773 39.6839 24.2369 39.5267C23.8789 39.3915 23.4886 39.1564 23.315 38.7984C23.0861 38.3098 23.3396 37.7904 23.5485 37.3387C23.7575 36.887 23.9327 36.3937 23.7222 35.9666C23.1414 36.2739 22.5606 36.5812 21.9798 36.8885C22.2333 37.8104 22.5606 38.7799 23.2704 39.4222C23.8389 39.9354 24.5811 40.1828 25.3294 40.3241C25.3294 40.3241 25.3294 40.3241 25.3416 40.3241C25.3861 40.3353 25.4313 40.3435 25.4769 40.3487C26.6584 40.5531 27.9445 40.5162 28.9509 39.8801C29.9035 39.2655 30.4966 38.2037 30.7317 37.0975C30.9166 36.2257 30.8881 35.3222 30.6488 34.4639ZM24.6979 34.092C24.512 34.0587 24.3388 33.9753 24.1969 33.8508C23.9742 33.648 23.9619 33.3699 24.0541 33.0672C24.2277 32.4726 24.704 31.3048 25.6551 31.0451C25.9086 30.9705 26.1773 30.9641 26.4341 31.0267C27.9045 31.3601 28.9309 33.0042 29.0247 35.057L24.6979 34.092Z"
                                    fill="white" />
                                <path
                                    d="M26.7276 31.9164C26.3895 32.3358 26.3511 32.4326 25.6013 32.1299C26.0146 32.428 25.9224 33.5128 25.7965 34.1274C26.2897 33.439 26.9166 32.7799 27.4098 32.7722C26.8597 32.5755 26.6047 32.5233 26.7276 31.9164Z"
                                    fill="white" />
                                <path
                                    d="M37.3694 28.9033C37.7474 28.1488 38.0778 27.8431 38.8076 27.4881C37.8857 27.1347 37.6998 26.7583 37.3694 26.0269C36.993 26.7337 36.6857 27.0641 35.9543 27.4651C36.615 27.9153 36.9438 28.2195 37.3694 28.9033Z"
                                    fill="white" />
                                <path
                                    d="M40.6007 28.9033C41.0002 28.1488 41.3075 27.8431 42.0389 27.4881C41.1431 27.1347 40.9311 26.7583 40.6007 26.0269C40.2227 26.7337 39.9154 27.0641 39.1856 27.4651C39.7737 27.8141 40.2613 28.3096 40.6007 28.9033Z"
                                    fill="white" />
                                <path
                                    d="M42.97 30.6426V30.85C42.2586 30.85 41.2491 31.0144 41.2491 32.7845V36.8624C41.2664 37.4976 41.1486 38.1292 40.9034 38.7154C40.6253 39.3287 40.1339 39.8202 39.5205 40.0983C39.1708 40.2522 38.8009 40.3557 38.4219 40.4056C38.256 40.4056 38.0901 40.4471 37.9241 40.4471C37.7582 40.4471 37.5507 40.4609 37.3633 40.4609C36.4936 40.4962 35.6286 40.5162 34.785 40.2673C34.1035 40.0879 33.5111 39.6655 33.1195 39.0796C32.7046 38.4296 32.5801 37.6337 32.5801 36.867V18.601C32.5801 16.8325 31.5645 16.6665 30.8593 16.6665V16.4591H32.6877V16.4514H35.9574V16.6665C35.4258 16.6665 34.7205 16.791 34.4854 17.8419V36.8624C34.4808 37.228 34.506 37.5933 34.5607 37.9548C34.5745 38.024 34.5884 38.0931 34.6022 38.1684C34.6626 38.6399 34.8739 39.0791 35.2045 39.4207C35.2773 39.4669 35.3533 39.508 35.4319 39.5436C35.891 39.777 36.3966 39.9046 36.9116 39.917C37.5145 39.906 38.1037 39.7347 38.6186 39.4207C39.1441 38.9367 39.3377 38.0993 39.3377 36.8624V30.6426H42.97Z"
                                    fill="white" />
                                <path
                                    d="M88.2079 30.6426V30.85C87.5026 30.85 86.487 31.0144 86.487 32.7845V36.8624C86.5043 37.4976 86.3865 38.1292 86.1413 38.7154C85.8641 39.3294 85.3724 39.8211 84.7584 40.0983C84.4058 40.2517 84.0334 40.3551 83.6521 40.4056C83.4877 40.4056 83.3218 40.447 83.1559 40.447C82.5412 40.4609 81.9266 40.5024 81.312 40.4747C80.8744 40.4541 80.4405 40.3845 80.0183 40.2673C79.5638 40.127 79.1493 39.8805 78.8091 39.5482C78.1806 40.1628 77.2265 40.4701 75.9204 40.4701C75.0162 40.4671 74.1339 40.1919 73.3883 39.6803C72.9554 39.3837 72.5891 39.0001 72.3127 38.5541C72.2205 38.7963 72.0948 39.0243 71.9393 39.2317C71.9095 39.275 71.8772 39.3165 71.8425 39.3561C71.2694 40.026 70.3782 40.3518 69.507 40.4409C68.6678 40.542 67.8166 40.4305 67.0317 40.1167C66.8028 40.0221 66.5831 39.9063 66.3756 39.771C65.8757 39.4535 65.4552 39.0256 65.1464 38.5203C65.1464 38.5479 65.1464 38.5679 65.1326 38.5956C65.1319 38.6328 65.1273 38.6699 65.1188 38.7062C65.0852 38.9473 65.0338 39.1856 64.9651 39.4191C64.9511 39.4471 64.9418 39.4772 64.9375 39.5082C64.8802 39.661 64.806 39.8068 64.7162 39.9431C64.4089 40.3856 63.948 40.4824 63.4378 40.4824C62.8079 40.4824 62.1871 40.4686 61.5648 40.4686H55.9643C55.176 40.4686 54.3878 40.4686 53.6011 40.4824H51.2226C50.1163 40.3994 49.0454 40.1152 48.3754 39.1548C48.1127 38.7892 48.0681 38.2329 48.0082 37.7996C47.8914 36.9085 47.8546 34.659 47.8223 33.7602C47.8008 32.9243 47.9667 31.8395 47.2553 31.2172C46.9214 30.9569 46.5019 30.8313 46.0799 30.8654V30.6503H49.7091C49.7429 31.8795 49.6538 36.2447 49.7429 37.4616C49.7571 37.8778 49.8391 38.2888 49.9857 38.6785C50.1559 39.098 50.4726 39.4414 50.8769 39.645C51.3255 39.8914 51.8147 40.0553 52.3212 40.129C52.832 40.1743 53.3452 40.1882 53.8577 40.1705H62.0811C62.3235 40.1697 62.5592 40.0906 62.753 39.9449C62.9469 39.7993 63.0884 39.5949 63.1567 39.3623C63.2567 38.993 63.2987 38.6105 63.2811 38.2283V33.7801H66.9088V33.9952C66.6331 33.9547 66.3516 33.9945 66.0979 34.1097C65.8443 34.225 65.6291 34.4109 65.4783 34.6452C65.2971 34.9902 65.2022 35.374 65.2017 35.7638C65.1741 36.214 65.1818 36.6626 65.1879 37.1051C65.1866 37.1626 65.1892 37.2201 65.1956 37.2772V37.3264C65.1975 37.4812 65.2135 37.6355 65.2432 37.7873C65.3268 38.1268 65.4877 38.4423 65.7134 38.7093C65.9836 39.0402 66.3201 39.3108 66.7014 39.5036C67.2794 39.8029 67.9256 39.946 68.5759 39.9185C69.1414 39.8908 69.7298 39.7187 70.1032 39.2901C70.3936 38.9582 70.5104 38.5095 70.5795 38.0731C70.8069 36.6503 70.621 35.1983 70.684 33.7709H74.3271V33.9952C73.9489 33.9659 73.5714 34.0603 73.2515 34.2641C72.892 34.5131 72.7061 34.9494 72.6369 35.3766C72.588 35.8106 72.5767 36.2481 72.6031 36.6841C72.6031 36.8639 72.6031 37.0437 72.5893 37.2234V37.2573C72.5853 37.2682 72.5853 37.2801 72.5893 37.2911C72.5763 37.5359 72.5419 37.7791 72.4863 38.0178C72.7241 38.5794 73.123 39.058 73.6326 39.393C74.1895 39.7505 74.8376 39.9399 75.4994 39.9385C77.2618 39.9385 77.8149 38.992 77.8349 36.9669C77.8272 36.9351 77.8226 36.9027 77.8211 36.8701V18.601C77.8211 16.8324 76.8131 16.6665 76.1002 16.6665V16.4591H81.3797V16.6727C81.3449 16.6688 81.3099 16.6688 81.2752 16.6727C81.2414 16.6727 81.206 16.6727 81.1722 16.6727C81.0854 16.6708 80.9987 16.6827 80.9156 16.708C80.3287 16.8186 79.734 17.2396 79.734 18.5871V36.8624C79.734 36.9039 79.7264 36.9392 79.7264 36.973C79.7402 38.1484 79.9415 38.9505 80.4454 39.4207C80.7852 39.6336 81.1629 39.7787 81.5579 39.8478C81.7536 39.8886 81.9526 39.9117 82.1525 39.917C82.7534 39.905 83.3404 39.7338 83.8534 39.4207C84.3789 38.9367 84.5787 38.0993 84.5787 36.8624V30.6426H88.2079Z"
                                    fill="white" />
                                <path
                                    d="M6.70929 56.9425H9.80329C10.1803 56.9425 11.3243 54.8235 11.7403 54.8235L11.2463 56.9035C10.9733 56.9945 10.2843 57.1375 9.62129 57.1375H4.05729V57.0075C4.43429 57.0075 4.99329 56.9295 4.99329 55.9155V48.8825C4.99329 47.8815 4.44729 47.7905 4.05729 47.7905V47.6735H8.81529C9.47829 47.6735 10.1673 47.8165 10.4403 47.9075L10.9343 49.9875C10.5183 49.9875 9.37429 47.8685 8.99729 47.8685H6.41029C6.21529 48.0115 6.05929 48.3625 6.05929 48.8955V51.9375H9.02329C9.27029 51.9375 9.29629 50.5595 9.56929 50.5595L10.4273 53.5235C10.1543 53.5235 9.27029 52.1455 9.02329 52.1455H6.05929V55.7855C6.05929 56.3315 6.38429 56.7475 6.70929 56.9425ZM12.639 57.0075C13.016 57.0075 13.588 56.9295 13.588 55.9155V48.8825C13.588 47.8815 13.042 47.7905 12.652 47.7905V47.6735H15.603V47.7905C15.213 47.7905 14.667 47.8815 14.667 48.8825V56.9425H17.228C17.605 56.9425 18.749 54.8235 19.165 54.8235L18.671 56.9035C18.385 56.9945 17.709 57.1375 17.046 57.1375H12.639V57.0075ZM23.1482 57.1375H20.1842V57.0075C20.5612 57.0075 21.1332 56.9295 21.1332 55.9155V48.8825C21.1332 47.8815 20.5742 47.7905 20.1842 47.7905V47.6735H23.1352V47.7905C22.7582 47.7905 22.1992 47.8815 22.1992 48.8825V55.9155C22.1992 56.9295 22.7712 57.0075 23.1482 57.0075V57.1375ZM25.9256 57.1375V57.0075C26.3156 57.0075 26.8876 56.9295 26.8876 55.9155V47.8685H25.3016C24.9246 47.8685 23.7806 49.9875 23.3646 49.9875L23.8586 47.9075C24.1316 47.8165 24.8076 47.6735 25.4706 47.6735H29.4876C30.1636 47.6735 30.8396 47.8165 31.1126 47.9075L31.6066 49.9875C31.1906 49.9875 30.0466 47.8685 29.6696 47.8685H27.9536V55.9155C27.9536 56.9295 28.5126 57.0075 28.9026 57.0075V57.1375H25.9256ZM34.7659 56.9425H37.8599C38.2369 56.9425 39.3809 54.8235 39.7969 54.8235L39.3029 56.9035C39.0299 56.9945 38.3409 57.1375 37.6779 57.1375H32.1139V57.0075C32.4909 57.0075 33.0499 56.9295 33.0499 55.9155V48.8825C33.0499 47.8815 32.5039 47.7905 32.1139 47.7905V47.6735H36.8719C37.5349 47.6735 38.2239 47.8165 38.4969 47.9075L38.9909 49.9875C38.5749 49.9875 37.4309 47.8685 37.0539 47.8685H34.4669C34.2719 48.0115 34.1159 48.3625 34.1159 48.8955V51.9375H37.0799C37.3269 51.9375 37.3529 50.5595 37.6259 50.5595L38.4839 53.5235C38.2109 53.5235 37.3269 52.1455 37.0799 52.1455H34.1159V55.7855C34.1159 56.3315 34.4409 56.7475 34.7659 56.9425ZM46.2 57.1375V57.0075C46.59 57.0075 47.162 56.9295 47.162 55.9155V47.8685H45.576C45.199 47.8685 44.055 49.9875 43.639 49.9875L44.133 47.9075C44.406 47.8165 45.082 47.6735 45.745 47.6735H49.762C50.438 47.6735 51.114 47.8165 51.387 47.9075L51.881 49.9875C51.465 49.9875 50.321 47.8685 49.944 47.8685H48.228V55.9155C48.228 56.9295 48.787 57.0075 49.177 57.0075V57.1375H46.2ZM51.4824 52.3925C51.8074 48.8435 54.7064 47.4525 56.5654 47.4525C58.4374 47.4525 61.0894 48.8435 60.7644 52.3925C60.4914 55.3305 58.1124 57.3455 55.6554 57.3455C53.2244 57.3455 51.2094 55.3305 51.4824 52.3925ZM59.5944 52.3925C59.5684 48.9995 57.3194 47.6735 56.0844 47.6735C54.8494 47.6735 52.6524 48.9995 52.6784 52.3925C52.7174 55.8115 54.9404 57.1375 56.1754 57.1375C57.4104 57.1375 59.6334 55.8115 59.5944 52.3925ZM55.4734 52.0285C56.1364 52.0675 56.1364 51.9245 56.2664 51.2225C56.3574 52.0675 56.5654 52.0155 57.0464 52.0155C56.6694 52.2625 56.3964 53.4065 56.2274 54.5375C56.1364 53.6795 55.8764 52.2235 55.4734 52.0285ZM68.7613 57.2155L66.8243 52.0285L64.6013 57.2155H64.4063L61.7543 48.8955C61.4293 47.8945 60.8573 47.8035 60.4803 47.8035V47.6735H63.4443V47.8035C63.0673 47.8035 62.5343 47.8945 62.8593 48.8955L65.0043 55.4215L66.6813 51.6515L65.6543 48.8955C65.2903 47.9075 64.7573 47.8035 64.3803 47.8035V47.6735H68.7613L67.4093 50.6765L69.2163 55.6165L71.2833 48.8825C71.6213 47.8035 71.5823 47.7775 69.6453 47.7775V47.6605H72.4663V47.7775C72.0763 47.7775 71.7903 48.0505 71.5303 48.8825L68.9563 57.2155H68.7613ZM67.2793 50.3255L68.3453 47.9465H66.2523C66.4863 48.1415 66.5903 48.4405 66.7593 48.8955L67.2793 50.3255ZM75.9241 56.9425H79.0181C79.3951 56.9425 80.5391 54.8235 80.9551 54.8235L80.4611 56.9035C80.1881 56.9945 79.4991 57.1375 78.8361 57.1375H73.2721V57.0075C73.6491 57.0075 74.2081 56.9295 74.2081 55.9155V48.8825C74.2081 47.8815 73.6621 47.7905 73.2721 47.7905V47.6735H78.0301C78.6931 47.6735 79.3821 47.8165 79.6551 47.9075L80.1491 49.9875C79.7331 49.9875 78.5891 47.8685 78.2121 47.8685H75.6251C75.4301 48.0115 75.2741 48.3625 75.2741 48.8955V51.9375H78.2381C78.4851 51.9375 78.5111 50.5595 78.7841 50.5595L79.6421 53.5235C79.3691 53.5235 78.4851 52.1455 78.2381 52.1455H75.2741V55.7855C75.2741 56.3315 75.5991 56.7475 75.9241 56.9425ZM84.5612 57.1375H81.5842V57.0075C81.9612 57.0075 82.5332 56.9295 82.5332 55.9155V48.8955C82.5332 47.8815 81.9742 47.7905 81.5972 47.7905V47.6735H85.3412C86.8232 47.6735 88.1362 48.0505 88.1362 49.9615C88.1362 52.0155 86.6022 52.5095 85.3932 52.7435C88.0972 53.5365 87.0832 58.7885 91.0352 58.7885V58.9055L90.1772 58.9185C85.4192 58.9185 87.1352 52.7825 84.6132 52.7825H83.5992V55.9155C83.5992 56.9295 84.1712 57.0075 84.5612 57.0075V57.1375ZM83.5992 52.2755L84.7952 52.5615C85.9522 52.6915 86.9792 52.3405 86.9922 50.0915C86.9922 47.9205 86.0432 47.8685 84.8862 47.8685H84.4572C84.0802 47.8685 83.5992 47.9465 83.5992 48.8955V52.2755ZM89.9202 49.2205C89.9202 51.5995 95.8482 51.8855 95.8482 54.6415C95.8482 56.3315 94.1062 57.3455 92.0002 57.3455C91.4022 57.3455 89.4782 57.0465 88.9322 56.8515L88.9712 55.7205C90.3362 55.7205 90.8302 57.1505 92.0002 57.1505C93.4172 57.1505 94.6912 56.3835 94.6912 55.0055C94.6912 52.6395 89.0622 52.4055 89.0622 49.7275C89.0622 48.3625 90.5572 47.5175 91.9872 47.5175C92.5982 47.5175 94.4182 47.8165 94.7562 48.0115L94.7172 49.1295C94.0282 49.1295 93.1702 47.7125 91.9872 47.7125C90.9602 47.7125 89.9202 48.3495 89.9202 49.2205Z"
                                    fill="white" />
                                <path
                                    d="M92.1721 43.8043C91.791 43.729 91.7265 43.3664 91.8064 42.9562C91.9693 42.1357 92.4917 41.7976 92.9603 41.8898L92.9757 41.664C91.9355 41.4596 91.0366 41.8453 90.8845 42.6212C90.7754 43.1682 90.9844 43.7229 91.8894 43.9687C91.4776 43.9872 91.0197 44.021 90.5418 44.0778C88.9101 44.2745 90.5787 44.9997 90.5787 44.9997C90.7109 44.4543 91.7649 44.1915 92.5915 44.0671C92.9309 44.0615 93.2692 44.0266 93.6026 43.9626L93.6963 43.1743C93.2138 43.0806 92.9342 43.9549 92.1721 43.8043Z"
                                    fill="white" />
                                <path d="M102.763 12.2675H1.41973H0.485537H0V57.5807H1.41973V13.6888H102.763V12.2675Z"
                                    fill="white" />
                                <path
                                    d="M157.83 12.2675H156.698H130.436V13.6888H156.698V56.1148H158.117V12.2675H157.83Z"
                                    fill="white" />
                                <path
                                    d="M81.5579 39.8478L81.3105 40.4701C80.8729 40.4495 80.4389 40.3799 80.0168 40.2627C79.5623 40.1224 79.1478 39.8759 78.8075 39.5436C79.5328 39.1241 79.7632 36.8824 79.7294 36.5996V36.8624C79.7294 36.9039 79.7218 36.9392 79.7218 36.973C79.7356 38.1484 79.9369 38.9505 80.4408 39.4207C80.7819 39.6342 81.1613 39.7793 81.5579 39.8478Z"
                                    fill="url(#paint0_linear_336_3443)" />
                                <path
                                    d="M73.6233 39.3853C73.5542 39.4744 73.4697 39.5789 73.3883 39.6819C72.9554 39.3853 72.5891 39.0017 72.3127 38.5556C72.2205 38.7978 72.0948 39.0259 71.9393 39.2332C72.4003 38.6709 72.5847 37.5861 72.5754 37.2834C72.5625 37.5282 72.528 37.7714 72.4725 38.0102C72.7115 38.5724 73.112 39.051 73.6233 39.3853Z"
                                    fill="url(#paint1_linear_336_3443)" />
                                <path
                                    d="M66.7044 39.5159L66.3802 39.7725C65.8803 39.455 65.4598 39.0272 65.151 38.5218C65.151 38.5495 65.151 38.5694 65.1372 38.5971C65.1925 38.0716 65.2002 37.4908 65.2002 37.3326C65.2021 37.4873 65.2181 37.6416 65.2478 37.7935C65.3314 38.1329 65.4923 38.4484 65.718 38.7154C65.9871 39.0484 66.3232 39.3212 66.7044 39.5159Z"
                                    fill="url(#paint2_linear_336_3443)" />
                                <path
                                    d="M25.8656 30.6149L25.6443 31.0359C24.6978 31.2987 24.22 32.468 24.0479 33.0611C23.9511 33.3684 23.9649 33.6419 24.1862 33.8431C24.1862 33.8431 22.4376 33.2762 23.0246 31.818C23.2818 31.4054 23.6446 31.069 24.0756 30.8439C24.5596 30.595 25.188 30.5673 25.7273 30.6011C25.7734 30.6149 25.818 30.6149 25.8656 30.6149Z"
                                    fill="url(#paint3_linear_336_3443)" />
                                <path opacity="0.3"
                                    d="M30.7317 37.1051C30.4966 38.2099 29.9097 39.2747 28.9555 39.8832C27.946 40.5193 26.6599 40.5608 25.4784 40.3533L25.3478 40.3318C25.3401 40.3318 25.3339 40.3318 25.3339 40.3318C24.5519 40.0245 24.3936 39.7848 25.6028 39.771H25.6197C25.7089 39.771 25.7995 39.771 25.8886 39.7572C25.9777 39.7433 26.0684 39.7433 26.1591 39.7295C26.2497 39.7157 26.3311 39.7018 26.4141 39.6819C26.4795 39.6689 26.5441 39.6525 26.6077 39.6327C26.7946 39.5811 26.9754 39.5095 27.147 39.4191C27.2166 39.3919 27.2818 39.3546 27.3406 39.3085C29.2689 38.1331 29.0123 35.0647 29.0123 35.0647L30.6441 34.47C30.8863 35.3284 30.9163 36.2326 30.7317 37.1051Z"
                                    fill="url(#paint4_linear_336_3443)" />
                                <path
                                    d="M37.3571 40.4563C36.4875 40.4916 35.6224 40.5116 34.7789 40.2627C34.0973 40.0833 33.5049 39.6609 33.1133 39.0749C32.6984 38.425 32.574 37.6291 32.574 36.8624V34.7543L34.4823 35.604V36.8624C34.4823 36.8624 34.4823 36.9254 34.4823 37.016C34.4728 37.329 34.5001 37.6421 34.5638 37.9487C34.5776 38.0178 34.5914 38.087 34.6052 38.1623C34.7115 38.7061 35.0051 39.1955 35.435 39.5451C35.7883 39.8155 36.2647 39.9677 36.9146 39.9185C37.7382 39.8616 37.7443 40.0967 37.3571 40.4563Z"
                                    fill="url(#paint5_linear_336_3443)" />
                                <path
                                    d="M40.9157 32.7215C40.8604 31.9532 41.1769 30.8777 42.0988 30.8608C41.1938 30.9376 40.9157 31.9532 40.9157 32.7215Z"
                                    fill="#CBCBCA" />
                                <path
                                    d="M64.9021 35.7884C64.8483 35.0201 65.1633 33.9445 66.0867 33.9276C65.1802 34.0045 64.9036 35.0201 64.9021 35.7884Z"
                                    fill="#CBCBCA" />
                                <path
                                    d="M72.1928 35.7884C72.1375 35.0201 72.4541 33.9445 73.376 33.9276C72.471 34.0045 72.1944 35.0201 72.1928 35.7884Z"
                                    fill="#CBCBCA" />
                                <path
                                    d="M84.2729 40.1551C85.7771 39.3607 86.6591 37.8181 86.0322 36.1448C86.7144 37.8058 85.8079 39.4084 84.2729 40.1551Z"
                                    fill="#CBCBCA" />
                                <path
                                    d="M17.7052 30.6534L17.7236 36.0911C17.7236 36.9069 17.7236 37.732 17.5177 38.5203C17.4515 38.8244 17.3099 39.1071 17.1059 39.3423C16.9341 39.5068 16.7301 39.634 16.5067 39.7157C15.7056 40.033 14.8127 40.0269 14.016 39.6988C13.8099 39.6221 13.622 39.5033 13.4644 39.35C13.2017 39.0765 13.108 38.6878 12.9743 38.3313C12.8892 38.0679 12.7341 37.8326 12.5256 37.6506C12.4736 37.6088 12.4163 37.5742 12.3551 37.5477C12.2721 37.5108 12.2444 37.5016 12.2137 37.5922L12.0324 38.1239L11.5714 39.4714C12.1012 39.9264 12.7395 40.2371 13.4245 40.3733C14.1064 40.5065 14.8013 40.5616 15.4957 40.5377C16.6358 40.527 17.8803 40.3917 18.6901 39.5897C19.1387 39.1133 19.4342 38.5133 19.5382 37.8673C19.6402 37.2252 19.6778 36.5746 19.6504 35.9251L19.6274 33.0134C19.6274 32.4311 19.6381 31.7842 20.0238 31.354C20.348 30.9898 20.8658 30.8577 21.3529 30.8639V30.6534H17.7052Z"
                                    fill="white" />
                                <path
                                    d="M9.47718 30.6534L9.49408 36.0911C9.49408 36.9069 9.49408 37.732 9.28819 38.5203C9.2212 38.8251 9.07793 39.108 8.87179 39.3423C8.70081 39.5071 8.4972 39.6343 8.27409 39.7157C7.47249 40.0329 6.5791 40.0268 5.78188 39.6988C5.57642 39.6217 5.38913 39.503 5.2318 39.35C4.96906 39.0765 4.87533 38.6878 4.74012 38.3313C4.65564 38.068 4.50108 37.8327 4.293 37.6506C4.24086 37.609 4.18352 37.5744 4.12244 37.5477C4.03794 37.5108 4.01182 37.5016 3.97955 37.5922L3.80132 38.1239L3.34036 39.4714C3.86962 39.9264 4.50735 40.237 5.19185 40.3733C5.87432 40.5064 6.56969 40.5616 7.26461 40.5377C8.4047 40.527 9.64926 40.3917 10.459 39.5897C10.9071 39.1129 11.2025 38.5131 11.3072 37.8673C11.4091 37.2252 11.4467 36.5746 11.4193 35.9251L11.3932 33.0134C11.3932 32.4311 11.404 31.7842 11.7912 31.354C12.1138 30.9898 12.6332 30.8577 13.1202 30.8639V30.6534H9.47718Z"
                                    fill="white" />
                                <path
                                    d="M10.7955 29.693C11.278 28.7296 11.699 28.3394 12.6393 27.8861C11.4654 27.4359 11.2242 26.955 10.7955 26.0208C10.3146 26.9227 9.92277 27.3452 8.99011 27.8646C9.83366 28.4362 10.2547 28.8264 10.7955 29.693Z"
                                    fill="white" />
                                <path
                                    d="M50.1947 40.2458C48.6582 39.5006 47.7531 37.8964 48.4338 36.237C47.8085 37.9103 48.6904 39.4529 50.1947 40.2458Z"
                                    fill="#CBCBCA" />
                                <path
                                    d="M19.4399 33.015C19.211 32.2728 19.4215 31.3463 20.1421 30.9576C20.2389 30.9007 20.3449 30.8638 20.4494 30.8162C19.549 31.1788 19.2279 32.1115 19.4445 33.015H19.4399Z"
                                    fill="#CBCBCA" />
                                <path opacity="0.5"
                                    d="M35.9543 16.4514V16.6665C35.4227 16.6665 34.7174 16.791 34.4823 17.8419V22.1134H32.574V18.601C32.574 16.8325 31.5583 16.6665 30.8531 16.6665V16.4591H32.6877V16.4514H35.9543Z"
                                    fill="url(#paint6_linear_336_3443)" />
                                <path opacity="0.5"
                                    d="M81.3796 16.4514V16.6803H81.2752C81.2413 16.6803 81.206 16.6803 81.1722 16.6803C81.0853 16.6785 80.9987 16.6904 80.9156 16.7157C80.3287 16.8263 79.734 17.2473 79.734 18.5948V22.4791H77.8119V18.601C77.8119 16.8325 76.8039 16.6665 76.091 16.6665V16.4591H77.8948V16.4514H81.3796Z"
                                    fill="url(#paint7_linear_336_3443)" />
                                <path opacity="0.5"
                                    d="M94.5245 16.4591V16.7864C93.8131 16.7864 92.7621 17.0353 92.7621 19.7872V25.1357H90.7677V19.7841C90.7677 19.6181 90.7677 19.4583 90.7539 19.3139C90.6509 17.1505 89.7935 16.8186 89.1236 16.7833C89.0745 16.7833 89.033 16.7833 88.9854 16.7833V16.4652L94.5245 16.4591Z"
                                    fill="url(#paint8_linear_336_3443)" />
                                <path opacity="0.7"
                                    d="M19.6642 37.7151L17.7359 36.7932V33.7832L19.652 34.7543V34.7789C19.6581 35.7545 19.6642 36.7318 19.6642 37.7151Z"
                                    fill="url(#paint9_linear_336_3443)" />
                                <path opacity="0.7"
                                    d="M11.3809 37.7151L9.45105 36.7932V33.7832L11.3686 34.7543V34.7789C11.3748 35.7545 11.3809 36.7318 11.3809 37.7151Z"
                                    fill="url(#paint10_linear_336_3443)" />
                            </g>
                            <defs>
                                <linearGradient id="paint0_linear_336_3443" x1="78.9412" y1="38.0409" x2="81.4549"
                                    y2="39.1211" gradientUnits="userSpaceOnUse">
                                    <stop />
                                    <stop offset="1" stop-color="white" stop-opacity="0" />
                                </linearGradient>
                                <linearGradient id="paint1_linear_336_3443" x1="72.1959" y1="38.1807" x2="73.439"
                                    y2="39.645" gradientUnits="userSpaceOnUse">
                                    <stop />
                                    <stop offset="1" stop-color="white" stop-opacity="0" />
                                </linearGradient>
                                <linearGradient id="paint2_linear_336_3443" x1="64.7961" y1="38.1607" x2="66.5616"
                                    y2="38.8568" gradientUnits="userSpaceOnUse">
                                    <stop />
                                    <stop offset="1" stop-color="white" stop-opacity="0" />
                                </linearGradient>
                                <linearGradient id="paint3_linear_336_3443" x1="22.1611" y1="34.7819" x2="25.7503"
                                    y2="29.9296" gradientUnits="userSpaceOnUse">
                                    <stop />
                                    <stop offset="1" stop-color="white" stop-opacity="0" />
                                </linearGradient>
                                <linearGradient id="paint4_linear_336_3443" x1="30.26" y1="39.7556" x2="27.5696"
                                    y2="37.1082" gradientUnits="userSpaceOnUse">
                                    <stop />
                                    <stop offset="1" stop-color="white" stop-opacity="0" />
                                </linearGradient>
                                <linearGradient id="paint5_linear_336_3443" x1="32.3235" y1="40.444" x2="35.5594"
                                    y2="36.973" gradientUnits="userSpaceOnUse">
                                    <stop />
                                    <stop offset="1" stop-color="white" stop-opacity="0" />
                                </linearGradient>
                                <linearGradient id="paint6_linear_336_3443" x1="33.4191" y1="15.2806" x2="33.3315"
                                    y2="22.811" gradientUnits="userSpaceOnUse">
                                    <stop />
                                    <stop offset="1" stop-color="white" stop-opacity="0" />
                                </linearGradient>
                                <linearGradient id="paint7_linear_336_3443" x1="78.7507" y1="15.2053" x2="78.6569"
                                    y2="23.2305" gradientUnits="userSpaceOnUse">
                                    <stop />
                                    <stop offset="1" stop-color="white" stop-opacity="0" />
                                </linearGradient>
                                <linearGradient id="paint8_linear_336_3443" x1="91.7757" y1="14.6813" x2="91.642"
                                    y2="26.1975" gradientUnits="userSpaceOnUse">
                                    <stop />
                                    <stop offset="1" stop-color="white" stop-opacity="0" />
                                </linearGradient>
                                <linearGradient id="paint9_linear_336_3443" x1="16.2424" y1="34.7512" x2="20.5815"
                                    y2="36.5136" gradientUnits="userSpaceOnUse">
                                    <stop />
                                    <stop offset="1" stop-color="white" stop-opacity="0" />
                                </linearGradient>
                                <linearGradient id="paint10_linear_336_3443" x1="7.95756" y1="34.7512" x2="12.2982"
                                    y2="36.5136" gradientUnits="userSpaceOnUse">
                                    <stop />
                                    <stop offset="1" stop-color="white" stop-opacity="0" />
                                </linearGradient>
                                <clipPath id="clip0_336_3443">
                                    <rect width="158.117" height="59.91" fill="white" />
                                </clipPath>
                            </defs>
                        </svg>