<svg width="183" height="191" viewBox="0 0 183 191" fill="none" xmlns="http://www.w3.org/2000/svg">
<rect x="8.37012" y="6.84863" width="69.247" height="114.143" fill="#B1915D"/>
<mask id="path-2-inside-1_336_3723" fill="white">
<path fill-rule="evenodd" clip-rule="evenodd" d="M37.2584 0H76.8703H105.893H145.505V5.88292H105.893V68.6345H105.893H76.8703V5.88292H37.2584V0ZM37.2584 5.88292H8.23608V74.5174H76.8706L76.8703 68.6345H37.2584V5.88292ZM105.893 68.6345H145.505V5.88292H174.528V34.1212H182.763V58.4374H174.528V74.5174H105.893V68.6345ZM8.23608 74.5176H76.8706V122.365H22.7474V143.152H8.23608V110.6H45.4949V86.2834H8.23608V74.5176ZM8.23608 86.2834V110.6H0V86.2834H8.23608ZM91.3817 191H22.7474V143.152H76.8706V122.365H91.3817H91.3819H105.893V143.152H160.016V191H91.3819H91.3817ZM174.528 110.6V143.152H160.016V122.365H105.893V74.5176H174.528V86.2834H137.269V110.6H174.528ZM174.528 110.6H182.764V86.2834H174.528V110.6Z"/>
</mask>
<path d="M37.2584 0V-2H35.2584V0H37.2584ZM145.505 0H147.505V-2H145.505V0ZM105.893 5.88292V3.88292H103.893V5.88292H105.893ZM76.8703 5.88292H78.8703V3.88292H76.8703V5.88292ZM8.23608 5.88292V3.88292H6.23608V5.88292H8.23608ZM8.23608 74.5174H6.23608V76.5174H8.23608V74.5174ZM76.8706 74.5174V76.5174H78.8706L78.8706 74.5173L76.8706 74.5174ZM37.2584 68.6345H35.2584V70.6345H37.2584V68.6345ZM145.505 68.6345V70.6345H147.505V68.6345H145.505ZM174.528 5.88292H176.528V3.88292H174.528V5.88292ZM174.528 34.1212H172.528V36.1212H174.528V34.1212ZM182.763 34.1212H184.763V32.1212H182.763V34.1212ZM182.763 58.4374V60.4374H184.763V58.4374H182.763ZM174.528 58.4374V56.4374H172.528V58.4374H174.528ZM174.528 74.5174V76.5174H176.528V74.5174H174.528ZM105.893 74.5174H103.893V76.5174H105.893V74.5174ZM76.8706 74.5176H78.8706V72.5176H76.8706V74.5176ZM8.23608 74.5176V72.5176H6.23608V74.5176H8.23608ZM22.7474 122.365V120.365H20.7474V122.365H22.7474ZM8.23608 143.152H6.23608V145.152H8.23608V143.152ZM45.4949 110.6V112.6H47.4949V110.6H45.4949ZM45.4949 86.2834H47.4949V84.2834H45.4949V86.2834ZM0 110.6H-2V112.6H0V110.6ZM0 86.2834V84.2834H-2V86.2834H0ZM22.7474 191H20.7474V193H22.7474V191ZM76.8706 143.152V145.152H78.8706V143.152H76.8706ZM105.893 143.152H103.893V145.152H105.893V143.152ZM160.016 191V193H162.016V191H160.016ZM174.528 143.152V145.152H176.528V143.152H174.528ZM160.016 122.365H162.016V120.365H160.016V122.365ZM105.893 74.5176V72.5176H103.893V74.5176H105.893ZM174.528 74.5176H176.528V72.5176H174.528V74.5176ZM137.269 86.2834V84.2834H135.269V86.2834H137.269ZM137.269 110.6H135.269V112.6H137.269V110.6ZM182.764 110.6V112.6H184.764V110.6H182.764ZM182.764 86.2834H184.764V84.2834H182.764V86.2834ZM76.8703 -2H37.2584V2H76.8703V-2ZM105.893 -2H76.8703V2H105.893V-2ZM145.505 -2H105.893V2H145.505V-2ZM147.505 5.88292V0H143.505V5.88292H147.505ZM105.893 7.88292H145.505V3.88292H105.893V7.88292ZM107.893 68.6345V5.88292H103.893V68.6345H107.893ZM105.893 70.6345H105.893V66.6345H105.893V70.6345ZM76.8703 70.6345H105.893V66.6345H76.8703V70.6345ZM74.8703 5.88292V68.6345H78.8703V5.88292H74.8703ZM37.2584 7.88292H76.8703V3.88292H37.2584V7.88292ZM35.2584 0V5.88292H39.2584V0H35.2584ZM8.23608 7.88292H37.2584V3.88292H8.23608V7.88292ZM10.2361 74.5174V5.88292H6.23608V74.5174H10.2361ZM76.8706 72.5174H8.23608V76.5174H76.8706V72.5174ZM74.8703 68.6346L74.8706 74.5175L78.8706 74.5173L78.8703 68.6344L74.8703 68.6346ZM37.2584 70.6345H76.8703V66.6345H37.2584V70.6345ZM35.2584 5.88292V68.6345H39.2584V5.88292H35.2584ZM145.505 66.6345H105.893V70.6345H145.505V66.6345ZM143.505 5.88292V68.6345H147.505V5.88292H143.505ZM174.528 3.88292H145.505V7.88292H174.528V3.88292ZM176.528 34.1212V5.88292H172.528V34.1212H176.528ZM182.763 32.1212H174.528V36.1212H182.763V32.1212ZM184.763 58.4374V34.1212H180.763V58.4374H184.763ZM174.528 60.4374H182.763V56.4374H174.528V60.4374ZM176.528 74.5174V58.4374H172.528V74.5174H176.528ZM105.893 76.5174H174.528V72.5174H105.893V76.5174ZM103.893 68.6345V74.5174H107.893V68.6345H103.893ZM76.8706 72.5176H8.23608V76.5176H76.8706V72.5176ZM78.8706 122.365V74.5176H74.8706V122.365H78.8706ZM22.7474 124.365H76.8706V120.365H22.7474V124.365ZM24.7474 143.152V122.365H20.7474V143.152H24.7474ZM8.23608 145.152H22.7474V141.152H8.23608V145.152ZM6.23608 110.6V143.152H10.2361V110.6H6.23608ZM45.4949 108.6H8.23608V112.6H45.4949V108.6ZM43.4949 86.2834V110.6H47.4949V86.2834H43.4949ZM8.23608 88.2834H45.4949V84.2834H8.23608V88.2834ZM6.23608 74.5176V86.2834H10.2361V74.5176H6.23608ZM6.23608 86.2834V110.6H10.2361V86.2834H6.23608ZM8.23608 108.6H0V112.6H8.23608V108.6ZM2 110.6V86.2834H-2V110.6H2ZM0 88.2834H8.23608V84.2834H0V88.2834ZM91.3817 189H22.7474V193H91.3817V189ZM24.7474 191V143.152H20.7474V191H24.7474ZM22.7474 145.152H76.8706V141.152H22.7474V145.152ZM78.8706 143.152V122.365H74.8706V143.152H78.8706ZM76.8706 124.365H91.3817V120.365H76.8706V124.365ZM91.3819 120.365H91.3817V124.365H91.3819V120.365ZM105.893 120.365H91.3819V124.365H105.893V120.365ZM103.893 122.365V143.152H107.893V122.365H103.893ZM105.893 145.152H160.016V141.152H105.893V145.152ZM162.016 191V143.152H158.016V191H162.016ZM91.3819 193H160.016V189H91.3819V193ZM91.3817 193H91.3819V189H91.3817V193ZM176.528 143.152V110.6H172.528V143.152H176.528ZM160.016 145.152H174.528V141.152H160.016V145.152ZM162.016 143.152V122.365H158.016V143.152H162.016ZM160.016 120.365H105.893V124.365H160.016V120.365ZM103.893 74.5176V122.365H107.893V74.5176H103.893ZM174.528 72.5176H105.893V76.5176H174.528V72.5176ZM176.528 86.2834V74.5176H172.528V86.2834H176.528ZM174.528 84.2834H137.269V88.2834H174.528V84.2834ZM135.269 86.2834V110.6H139.269V86.2834H135.269ZM137.269 112.6H174.528V108.6H137.269V112.6ZM174.528 112.6H182.764V108.6H174.528V112.6ZM184.764 110.6V86.2834H180.764V110.6H184.764ZM182.764 84.2834H174.528V88.2834H182.764V84.2834ZM176.528 110.6V86.2834H172.528V110.6H176.528Z" fill="white" mask="url(#path-2-inside-1_336_3723)"/>
</svg>
