<svg width="465" height="135" viewBox="0 0 465 135" fill="none" xmlns="http://www.w3.org/2000/svg">
<path d="M267.067 24.3532C266.418 27.8641 266.418 28.5947 263.008 28.4121C265.038 29.3862 266.337 36.6719 266.783 40.9541C267.636 35.3122 268.995 29.5892 270.842 28.3512C268.549 28.3309 267.514 28.5947 267.067 24.3532Z" fill="#312F4C"/>
<path d="M34.7369 50.4722H19.2725C18.2851 49.8628 17.4689 49.0121 16.9009 48.0002C16.3328 46.9884 16.0316 45.8487 16.0254 44.6883V26.4233H30.8404C32.0783 26.4233 36.5025 33.3234 37.8622 33.3234L33.5801 18.4882C32.2001 18.4882 32.0783 25.3883 30.8404 25.3883H16.0254V10.1675C15.9194 9.23591 16.0209 8.29238 16.3226 7.40465C16.6244 6.51692 17.1189 5.707 17.7708 5.03302H30.7186C32.606 5.03302 38.3087 15.6267 40.399 15.6267L37.9231 5.23598C35.2852 4.4676 32.5529 4.07141 29.8053 4.0589H6V4.80978C8.02944 4.80978 10.688 5.25626 10.688 10.269V45.3986C10.688 50.4722 7.88738 50.8578 6 50.8578V51.4869H33.8236C36.5711 51.4739 39.3034 51.0777 41.9414 50.3098L44.4173 39.9191C42.3473 39.8785 36.6243 50.4722 34.7369 50.4722Z" fill="#312F4C"/>
<path d="M71.8551 50.4113H59.0494V10.1066C59.0494 5.09391 61.7891 4.64742 63.7374 4.64742V4.0589H48.963V4.7489C50.9925 4.7489 53.651 5.19538 53.651 10.2081V45.3377C53.651 50.4113 50.7895 50.7969 48.9022 50.7969V51.426H70.9419C73.6888 51.406 76.4201 51.01 79.0596 50.249L81.5153 39.8582C79.4655 39.8176 73.7425 50.4113 71.8551 50.4113Z" fill="#312F4C"/>
<path d="M96.6753 45.3377V10.1066C96.6753 5.09391 99.4759 4.64742 101.363 4.64742V4.0589H86.6093V4.7489C88.6387 4.7489 91.3581 5.19538 91.3581 10.2081V45.3377C91.3581 50.4113 88.4966 50.7969 86.6093 50.7969V51.426H101.424V50.7766C99.5368 50.736 96.6753 50.3504 96.6753 45.3377Z" fill="#312F4C"/>
<path d="M133.165 4.0589H113.175C110.427 4.06685 107.694 4.46313 105.057 5.23598L102.601 15.6267C104.631 15.6267 110.394 5.03302 112.282 5.03302H120.217V45.3377C120.217 50.4113 117.355 50.7969 115.407 50.7969V51.426H130.222V50.7766C128.193 50.7766 125.493 50.391 125.493 45.3174V5.03302H134.058C135.945 5.03302 141.668 15.6267 143.758 15.6267L141.283 5.23598C138.646 4.4626 135.913 4.06631 133.165 4.0589Z" fill="#312F4C"/>
<path d="M175.012 50.4113H159.547C158.56 49.8019 157.744 48.9512 157.176 47.9394C156.608 46.9275 156.306 45.7878 156.3 44.6274V26.3624H171.115C172.353 26.3624 176.777 33.2626 178.137 33.2626L173.855 18.4273C172.475 18.4273 172.353 25.3274 171.115 25.3274H156.3V10.1066C156.194 9.17503 156.296 8.2315 156.598 7.34377C156.899 6.45603 157.394 5.64612 158.046 4.97214H170.994C172.881 4.97214 178.584 15.5658 180.674 15.5658L178.117 5.23598C175.479 4.4676 172.747 4.07141 169.999 4.0589H146.275V4.7489C148.304 4.7489 150.963 5.19538 150.963 10.2081V45.3377C150.963 50.4113 148.162 50.7969 146.275 50.7969V51.426H174.058C176.805 51.413 179.538 51.0168 182.176 50.249L184.652 39.8582C182.622 39.8176 176.899 50.4113 175.012 50.4113Z" fill="#312F4C"/>
<path d="M245.088 15.6267L242.633 5.23598C239.995 4.46472 237.263 4.06847 234.515 4.0589H214.424C211.676 4.06467 208.942 4.46099 206.306 5.23598L203.83 15.6267C205.859 15.6267 211.643 5.03302 213.531 5.03302H221.466V45.3377C221.466 50.4113 218.604 50.7969 216.636 50.7969V51.426H231.532V50.7766C229.502 50.7766 226.783 50.391 226.783 45.3174V5.03302H235.367C237.356 5.03302 243.059 15.6267 245.088 15.6267Z" fill="#312F4C"/>
<path d="M268.549 2.0293C261.973 2.19723 255.701 4.83275 250.978 9.41225C246.256 13.9917 243.429 20.1801 243.059 26.7479C241.699 41.441 251.765 51.5071 263.922 51.5071C276.078 51.5071 288.113 41.3598 289.472 26.7479C291.177 8.99026 277.925 2.0293 268.549 2.0293ZM266.52 50.472C260.431 50.472 249.229 43.8358 249.046 26.7479C248.863 9.65998 259.904 3.1455 266.073 3.1455C272.243 3.1455 283.486 9.78175 283.628 26.7479C283.77 43.714 272.791 50.5126 266.601 50.5126L266.52 50.472Z" fill="#312F4C"/>
<path d="M333.958 4.60686C343.638 4.60686 343.841 4.72863 342.075 10.1269L331.746 43.7954L322.715 19.0971L329.473 4.07921H307.555V4.76922C309.442 4.76922 312.121 5.29688 313.927 10.2284L319.062 24.0083L310.68 42.8618L299.965 10.2284C298.321 5.2157 301 4.76922 302.887 4.76922V4.11978H288.113V4.76922C290 4.76922 292.862 5.2157 294.485 10.2284L307.758 51.832H308.732L319.853 25.8957L329.534 51.832H330.508L343.374 10.1675C344.673 6.10865 346.114 4.64745 348.062 4.64745V4.0589H333.856L333.958 4.60686ZM319.528 10.1878C319.092 8.41823 318.22 6.78583 316.992 5.43893H327.443L322.207 17.3315L319.528 10.1878Z" fill="#312F4C"/>
<path d="M380.817 50.4722H365.353C364.36 49.8667 363.539 49.0174 362.967 48.005C362.396 46.9927 362.092 45.851 362.086 44.6883V26.4233H377.002C378.24 26.4233 382.664 33.3234 384.024 33.3234L379.721 18.4882C378.362 18.4882 378.24 25.3883 377.002 25.3883H362.167V10.1675C362.063 9.23438 362.168 8.28992 362.473 7.40211C362.779 6.51429 363.277 5.70519 363.932 5.03302H376.86C378.747 5.03302 384.47 15.6267 386.561 15.6267L384.085 5.23598C381.447 4.4676 378.715 4.07141 375.967 4.0589H352.081V4.80978C354.11 4.80978 356.769 5.25626 356.769 10.269V45.3986C356.769 50.4722 353.968 50.8578 352.081 50.8578V51.4869H379.904C382.651 51.472 385.383 51.0759 388.022 50.3098L390.478 39.9191C388.428 39.8785 382.705 50.4722 380.817 50.4722Z" fill="#312F4C"/>
<path d="M412.741 25.3477C418.829 24.1909 426.46 21.715 426.46 11.446C426.46 1.88738 419.884 0 412.477 0H393.745V0.690002C395.632 0.690002 398.433 1.13648 398.433 6.21008V41.2788C398.433 46.3524 395.571 46.738 393.684 46.738V47.3671H408.58V46.7177C406.551 46.7177 403.77 46.3321 403.77 41.2585V25.5913H408.824C421.447 25.5913 412.883 56.2764 436.668 56.2764H440.95V55.6879C421.183 55.5864 426.257 29.3254 412.741 25.3477ZM409.737 24.4345L403.77 23.0139V6.10861C403.77 1.35971 406.165 0.974123 408.053 0.974123H410.204C415.988 0.974123 420.737 1.23794 420.737 12.0955C420.676 23.3386 415.561 25.0433 409.737 24.4345Z" fill="#312F4C"/>
<path d="M435.348 10.5529C435.348 6.18964 440.544 3.0237 445.699 3.0237C451.604 3.0237 455.846 10.1065 459.336 10.1065L459.539 4.50522C455.051 3.09114 450.399 2.25903 445.699 2.0293C438.535 2.0293 431.066 6.27082 431.066 13.0897C431.066 26.4841 459.215 27.6611 459.215 39.4725C459.215 46.3523 452.842 50.1879 445.759 50.1879C439.894 50.1879 437.439 43.0443 430.6 43.0443L430.417 48.7064C435.439 50.0201 440.578 50.8425 445.759 51.162C456.292 51.162 464.999 46.0885 464.999 37.646C464.999 23.8052 435.348 22.4455 435.348 10.5529Z" fill="#312F4C"/>
<path d="M201.198 114.281L189 126.479L176.802 114.281C170.066 107.544 170.066 96.6223 176.802 89.8858C183.539 83.1492 194.461 83.1492 201.198 89.8858C207.934 96.6223 207.934 107.544 201.198 114.281ZM189 105.917C191.117 105.917 192.833 104.201 192.833 102.083C192.833 99.9663 191.117 98.25 189 98.25C186.883 98.25 185.167 99.9663 185.167 102.083C185.167 104.201 186.883 105.917 189 105.917Z" fill="#312F4C"/>
<path d="M37.2936 115.6V119H15.7736C13.3203 119 11.3203 118.8 9.77359 118.4C8.22693 118 7.05359 117.307 6.25359 116.32C5.48026 115.307 5.09359 113.907 5.09359 112.12C5.09359 111 5.21359 109.627 5.45359 108C5.72026 106.373 6.01359 104.827 6.33359 103.36L9.33359 103.52L8.97359 106.48C8.65359 108.72 8.49359 110.307 8.49359 111.24C8.49359 112.787 9.00026 113.907 10.0136 114.6C11.0536 115.267 12.9069 115.6 15.5736 115.6H27.6136V99H31.4136V115.6H37.2936ZM17.1736 122.2H20.8136V126.12H17.1736V122.2ZM62.1486 115.6V119H37.3086V115.6H42.5086C41.8953 114.08 41.5886 111.947 41.5886 109.2C41.5886 106.56 41.9086 104.52 42.5486 103.08C43.1886 101.613 44.2019 100.573 45.5886 99.96C47.0019 99.3467 48.9619 99.04 51.4686 99.04C53.5486 99.04 55.4286 99.1333 57.1086 99.32L58.5086 99.48V115.6H62.1486ZM45.3886 109.48C45.3886 111.213 45.5086 112.533 45.7486 113.44C45.9886 114.32 46.2953 115.04 46.6686 115.6H54.7086V102.52C53.0553 102.387 51.8953 102.32 51.2286 102.32C49.6286 102.32 48.4153 102.547 47.5886 103C46.7619 103.453 46.1886 104.187 45.8686 105.2C45.5486 106.213 45.3886 107.64 45.3886 109.48ZM46.0286 91.4H49.4286V95.28H46.0286V91.4ZM51.3886 91.4H54.7486V95.28H51.3886V91.4ZM83.4723 115.6V119H62.1523V115.6H69.0723C68.459 114.8 67.9257 113.747 67.4723 112.44C67.0457 111.133 66.8323 109.693 66.8323 108.12C66.8323 106.147 67.2057 104.44 67.9523 103C68.699 101.56 69.739 100.467 71.0723 99.72C72.4057 98.9467 73.9257 98.56 75.6323 98.56C76.6457 98.56 77.7657 98.7067 78.9923 99C80.219 99.2667 81.3123 99.6533 82.2723 100.16L82.1123 103.6C81.579 103.28 80.6857 102.933 79.4323 102.56C78.179 102.187 77.0457 102 76.0323 102C74.4057 102 73.099 102.547 72.1123 103.64C71.1257 104.733 70.6323 106.293 70.6323 108.32C70.6323 109.893 70.9123 111.32 71.4723 112.6C72.0323 113.853 72.7257 114.853 73.5523 115.6H83.4723ZM110.16 119H104.64V119.24C104.64 122.387 104.094 124.787 103 126.44C101.907 128.12 100.254 128.96 98.0405 128.96C97.4271 128.96 96.7605 128.92 96.0405 128.84L95.0805 128.76V125.4C95.9605 125.48 96.6805 125.52 97.2405 125.52C98.4405 125.52 99.3471 125.04 99.9605 124.08C100.574 123.12 100.88 121.773 100.88 120.04V99.04H104.64V115.6H110.16V119ZM135 115.6V119H110.16V115.6H115.36C114.747 114.08 114.44 111.947 114.44 109.2C114.44 106.56 114.76 104.52 115.4 103.08C116.04 101.613 117.053 100.573 118.44 99.96C119.853 99.3467 121.813 99.04 124.32 99.04C126.4 99.04 128.28 99.1333 129.96 99.32L131.36 99.48V115.6H135ZM118.24 109.48C118.24 111.213 118.36 112.533 118.6 113.44C118.84 114.32 119.147 115.04 119.52 115.6H127.56V102.52C125.907 102.387 124.747 102.32 124.08 102.32C122.48 102.32 121.267 102.547 120.44 103C119.613 103.453 119.04 104.187 118.72 105.2C118.4 106.213 118.24 107.64 118.24 109.48ZM121.44 91.36H125.08V95.28H121.44V91.36ZM149.644 101.08C152.177 101.08 153.977 101.973 155.044 103.76C156.137 105.547 156.684 107.653 156.684 110.08V119H135.004V115.6H152.924V110.04C152.924 108.547 152.617 107.253 152.004 106.16C151.391 105.067 150.457 104.507 149.204 104.48H138.404L136.124 101.44L138.324 97.16C138.831 96.1733 139.551 95.0267 140.484 93.72C141.444 92.3867 142.391 91.16 143.324 90.04L146.044 91.6C144.257 94.2667 142.844 96.6 141.804 98.6L140.484 101.08H149.644Z" fill="#312F4C"/>
<path d="M458 123.652V124.587H444.984V123.652C446.65 123.652 449.152 123.096 449.152 115.845V84.6534V70.7489C449.152 70.317 449.152 69.9011 449.119 69.5252C448.879 63.8946 446.876 63.0309 445.311 62.9389C445.196 62.9389 445.099 62.9389 444.988 62.9389V62.1111H457.935V62.9469C456.273 62.9469 453.818 63.5947 453.818 70.7569V115.845C453.84 123.096 456.352 123.652 458 123.652Z" fill="#312F4C"/>
<path d="M427.497 131.158C425.312 132.121 424.322 132.952 423.19 135C421.92 133.144 420.931 132.313 418.952 131.095C421.143 130.006 422.063 129.109 423.19 127.19C424.18 129.176 424.746 130.198 427.497 131.158ZM437.161 131.158C434.97 132.121 434.05 132.952 432.854 135C431.838 133.387 430.378 132.042 428.616 131.095C430.801 130.006 431.722 129.109 432.854 127.19C433.857 129.176 434.492 130.198 437.175 131.158H437.161Z" fill="#312F4C"/>
<path d="M391.213 131.158C389.651 132.121 388.945 132.952 388.136 135C387.228 133.144 386.521 132.313 385.111 131.095C386.673 130.006 387.33 129.109 388.136 127.19C388.843 129.176 389.247 130.198 391.213 131.158ZM398.117 131.158C396.552 132.121 395.898 132.952 395.04 135C394.315 133.387 393.271 132.042 392.012 131.095C393.574 130.006 394.231 129.109 395.04 127.19C395.757 129.176 396.21 130.198 398.127 131.158H398.117Z" fill="#312F4C"/>
<path d="M359.972 114.216C358.412 114.859 357.706 115.412 356.898 116.778C355.991 115.54 355.285 114.987 353.873 114.175C355.436 113.449 356.093 112.851 356.898 111.572C357.614 112.898 358.018 113.577 359.972 114.216ZM366.869 114.216C365.306 114.859 364.649 115.412 363.795 116.778C363.07 115.703 362.028 114.806 360.77 114.175C362.33 113.449 362.987 112.851 363.795 111.572C364.521 112.898 364.974 113.577 366.889 114.216H366.869Z" fill="#312F4C"/>
<path d="M293.523 110.349C293.418 109.984 293.288 109.619 293.144 109.254C291.853 106.039 289.097 103.528 285.931 102.178C285.19 101.863 284.422 101.619 283.637 101.449C283.201 101.346 282.739 101.273 282.303 101.215C282.187 101.215 282.101 101.215 281.982 101.182C280.719 101.109 279.241 101.182 278.108 101.755C277.095 102.291 276.243 103.092 275.641 104.076C275.088 104.904 274.741 105.856 274.628 106.849C274.556 107.597 274.628 108.48 275.209 108.966C275.587 109.243 276.024 109.428 276.485 109.506C280.896 110.549 285.307 111.564 289.718 112.589C289.723 114.342 289.438 116.084 288.874 117.741C288.31 119.41 287.225 120.849 285.783 121.839C285.634 121.936 285.48 122.023 285.321 122.102C284.917 122.308 284.494 122.475 284.059 122.602C283.913 122.656 283.762 122.695 283.608 122.719C283.408 122.773 283.205 122.812 282.999 122.836C282.793 122.874 282.584 122.899 282.375 122.909C282.163 122.933 281.95 122.943 281.736 122.938H281.693C280.596 122.937 279.506 122.745 278.473 122.372C277.632 122.051 276.716 121.493 276.309 120.642C275.771 119.482 276.366 118.249 276.857 117.176C277.347 116.103 277.758 114.932 277.264 113.917C275.901 114.647 274.538 115.377 273.175 116.107C273.77 118.296 274.538 120.599 276.204 122.124C277.538 123.343 279.28 123.93 281.037 124.266C281.037 124.266 281.037 124.266 281.066 124.266C281.17 124.292 281.276 124.312 281.383 124.324C284.156 124.81 287.175 124.722 289.537 123.211C291.774 121.752 293.166 119.23 293.717 116.603C294.151 114.533 294.085 112.387 293.523 110.349ZM279.555 109.465C279.118 109.386 278.712 109.188 278.379 108.893C277.856 108.411 277.827 107.75 278.043 107.032C278.451 105.619 279.569 102.846 281.801 102.229C282.396 102.052 283.027 102.037 283.63 102.186C287.081 102.977 289.491 106.882 289.711 111.757L279.555 109.465Z" fill="#312F4C"/>
<path d="M284.226 103.762C283.253 104.75 283.143 104.978 280.984 104.265C282.174 104.967 281.909 107.521 281.546 108.968C282.966 107.347 284.771 105.795 286.19 105.777C284.607 105.314 283.873 105.191 284.226 103.762Z" fill="#312F4C"/>
<path d="M310.889 93.3492C311.924 91.3009 312.828 90.4707 314.825 89.507C312.302 88.5475 311.793 87.5254 310.889 85.5397C309.859 87.4587 309.018 88.3556 307.016 89.4444C308.824 90.6668 309.724 91.4928 310.889 93.3492Z" fill="#312F4C"/>
<path d="M319.99 93.3492C321.448 91.3009 322.569 90.4707 325.238 89.507C321.969 88.5475 321.195 87.5254 319.99 85.5397C318.61 87.4587 317.489 88.3556 314.825 89.4444C316.972 90.392 318.751 91.7373 319.99 93.3492Z" fill="#312F4C"/>
<path d="M325.238 99.0065V99.5458C323.403 99.5458 320.799 99.9733 320.799 104.575V115.177C320.844 116.829 320.54 118.471 319.908 119.995C319.19 121.59 317.923 122.867 316.341 123.59C315.438 123.99 314.484 124.259 313.507 124.389C313.079 124.389 312.651 124.497 312.223 124.497C311.795 124.497 311.26 124.533 310.776 124.533C308.533 124.625 306.302 124.677 304.126 124.03C302.368 123.563 300.84 122.465 299.83 120.942C298.76 119.252 298.439 117.183 298.439 115.189V67.6997C298.439 63.1018 295.819 62.6703 294 62.6703V62.1311H298.716V62.1111H307.15V62.6703C305.779 62.6703 303.96 62.9939 303.353 65.7263V115.177C303.341 116.128 303.406 117.078 303.547 118.018C303.583 118.197 303.619 118.377 303.654 118.573C303.81 119.799 304.355 120.941 305.208 121.829C305.396 121.949 305.592 122.056 305.794 122.148C306.979 122.755 308.283 123.087 309.611 123.119C311.166 123.09 312.686 122.645 314.014 121.829C315.37 120.57 315.869 118.393 315.869 115.177V99.0065H325.238Z" fill="#312F4C"/>
<path d="M439.778 98.9949V99.5343C438.035 99.5343 435.524 99.9619 435.524 104.565V115.169C435.567 116.821 435.276 118.464 434.67 119.988C433.985 121.585 432.769 122.863 431.252 123.584C430.38 123.983 429.46 124.252 428.517 124.383C428.111 124.383 427.701 124.491 427.291 124.491C425.772 124.527 424.253 124.635 422.733 124.563C421.652 124.509 420.579 124.328 419.536 124.024C418.412 123.659 417.388 123.018 416.547 122.154C414.994 123.752 412.635 124.551 409.407 124.551C407.172 124.543 404.991 123.828 403.148 122.497C402.078 121.726 401.173 120.729 400.49 119.569C400.262 120.198 399.951 120.791 399.567 121.331C399.493 121.443 399.413 121.551 399.328 121.654C397.911 123.396 395.709 124.243 393.555 124.475C391.481 124.738 389.377 124.448 387.437 123.632C386.871 123.386 386.328 123.085 385.815 122.733C384.58 121.907 383.54 120.795 382.777 119.481C382.777 119.553 382.777 119.604 382.743 119.676C382.741 119.773 382.73 119.87 382.709 119.964C382.626 120.591 382.499 121.211 382.329 121.818C382.294 121.891 382.271 121.969 382.261 122.05C382.119 122.447 381.936 122.826 381.714 123.181C380.954 124.331 379.815 124.583 378.554 124.583C376.997 124.583 375.463 124.547 373.925 124.547H360.082C358.134 124.547 356.185 124.547 354.241 124.583H348.362C345.627 124.367 342.98 123.628 341.325 121.131C340.675 120.18 340.565 118.733 340.417 117.607C340.128 115.289 340.037 109.44 339.957 107.102C339.904 104.928 340.314 102.108 338.556 100.489C337.731 99.8122 336.694 99.4856 335.651 99.5743V99.0149H344.621C344.705 102.211 344.484 113.563 344.705 116.728C344.74 117.81 344.942 118.879 345.305 119.892C345.725 120.983 346.508 121.876 347.507 122.405C348.616 123.046 349.825 123.473 351.077 123.664C352.34 123.782 353.608 123.818 354.875 123.772H375.201C375.8 123.77 376.382 123.564 376.861 123.185C377.341 122.807 377.69 122.275 377.859 121.67C378.106 120.71 378.21 119.715 378.167 118.721V107.154H387.133V107.713C386.452 107.608 385.756 107.711 385.129 108.011C384.502 108.311 383.97 108.794 383.597 109.404C383.149 110.301 382.915 111.299 382.914 112.312C382.846 113.483 382.865 114.65 382.88 115.801C382.876 115.95 382.883 116.1 382.899 116.248V116.376C382.904 116.778 382.943 117.18 383.016 117.575C383.223 118.457 383.621 119.278 384.179 119.972C384.846 120.833 385.678 121.537 386.621 122.038C388.049 122.816 389.646 123.188 391.254 123.117C392.651 123.045 394.106 122.597 395.029 121.482C395.747 120.619 396.035 119.453 396.206 118.318C396.768 114.618 396.309 110.842 396.464 107.13H405.469V107.713C404.534 107.637 403.601 107.883 402.81 108.413C401.922 109.06 401.462 110.195 401.291 111.306C401.17 112.434 401.143 113.572 401.208 114.706C401.208 115.173 401.208 115.641 401.174 116.108V116.196C401.164 116.225 401.164 116.256 401.174 116.284C401.142 116.921 401.056 117.553 400.919 118.174C401.507 119.634 402.493 120.879 403.752 121.75C405.129 122.68 406.731 123.172 408.366 123.169C412.723 123.169 414.09 120.707 414.139 115.441C414.12 115.358 414.109 115.274 414.105 115.189V67.681C414.105 63.082 411.614 62.6505 409.851 62.6505V62.1111H422.901V62.6665C422.815 62.6566 422.728 62.6566 422.642 62.6665C422.559 62.6665 422.471 62.6665 422.388 62.6665C422.173 62.6617 421.959 62.6927 421.754 62.7584C420.303 63.0461 418.833 64.1409 418.833 67.6451V115.169C418.833 115.277 418.814 115.369 418.814 115.457C418.848 118.514 419.346 120.599 420.591 121.822C421.431 122.376 422.365 122.753 423.341 122.933C423.825 123.039 424.317 123.099 424.811 123.113C426.296 123.082 427.747 122.636 429.015 121.822C430.314 120.563 430.807 118.386 430.807 115.169V98.9949H439.778Z" fill="#312F4C"/>
<path d="M451.296 132.246C450.271 132.073 450.097 131.237 450.312 130.292C450.75 128.402 452.156 127.623 453.417 127.836L453.458 127.315C450.659 126.844 448.241 127.733 447.832 129.52C447.538 130.781 448.1 132.058 450.535 132.625C449.427 132.667 448.196 132.745 446.91 132.876C442.52 133.329 447.009 135 447.009 135C447.365 133.743 450.201 133.138 452.425 132.851C453.338 132.839 454.248 132.758 455.145 132.611L455.397 130.795C454.099 130.579 453.346 132.593 451.296 132.246Z" fill="#312F4C"/>
<path d="M262.496 101.159L262.55 114.04C262.55 115.973 262.55 117.928 261.947 119.795C261.753 120.516 261.339 121.185 260.742 121.743C260.239 122.132 259.642 122.434 258.988 122.627C256.642 123.379 254.028 123.364 251.696 122.587C251.093 122.405 250.543 122.124 250.081 121.761C249.312 121.113 249.038 120.192 248.646 119.347C248.397 118.724 247.943 118.166 247.333 117.735C247.181 117.636 247.013 117.554 246.834 117.491C246.591 117.404 246.51 117.382 246.42 117.597L245.889 118.856L244.54 122.048C246.091 123.126 247.959 123.862 249.964 124.185C251.961 124.5 253.995 124.631 256.028 124.574C259.365 124.549 263.009 124.229 265.379 122.329C266.693 121.2 267.558 119.779 267.862 118.248C268.161 116.727 268.271 115.186 268.191 113.647L268.123 106.75C268.123 105.37 268.155 103.838 269.284 102.819C270.233 101.956 271.749 101.643 273.175 101.657V101.159H262.496Z" fill="#312F4C"/>
<path d="M240.049 101.159L240.094 114.04C240.094 115.973 240.094 117.928 239.546 119.795C239.368 120.517 238.986 121.187 238.438 121.743C237.982 122.133 237.441 122.434 236.847 122.627C234.713 123.379 232.335 123.364 230.213 122.587C229.666 122.404 229.168 122.123 228.749 121.761C228.049 121.113 227.8 120.192 227.44 119.348C227.215 118.724 226.804 118.166 226.25 117.735C226.111 117.637 225.959 117.555 225.796 117.491C225.571 117.404 225.501 117.382 225.416 117.597L224.941 118.856L223.714 122.048C225.123 123.126 226.82 123.862 228.642 124.185C230.459 124.5 232.31 124.631 234.16 124.574C237.194 124.549 240.507 124.229 242.662 122.329C243.855 121.199 244.641 119.778 244.92 118.248C245.191 116.727 245.291 115.186 245.219 113.647L245.149 106.75C245.149 105.37 245.178 103.838 246.208 102.819C247.067 101.956 248.45 101.643 249.746 101.657V101.159H240.049Z" fill="#312F4C"/>
<path d="M243.197 95.9524C244.229 93.2207 245.13 92.1141 247.143 90.8288C244.631 89.5523 244.114 88.1886 243.197 85.5397C242.168 88.0971 241.329 89.2952 239.333 90.7678C241.139 92.3885 242.04 93.4952 243.197 95.9524Z" fill="#312F4C"/>
</svg>
