<svg class="logo-scrolled d-none" width="151" height="70" viewBox="0 0 155 61" fill="none"
                            xmlns="http://www.w3.org/2000/svg">
                            <path
                                d="M154 53.4641H149.971L149.905 23.024L146.652 21.1296L146.728 53.4641H145.375L145.297 20.3361L142.826 18.8965L142.91 53.4611H141.555L141.469 18.1075L138.169 16.1845L134.884 18.1316L134.97 53.3828V53.4626H133.618L133.534 18.9342L131.076 20.3933L131.154 53.4626H129.798L129.723 21.1944L126.487 23.1143L126.556 53.4626H126.016L125.687 6.29884L122.595 4.5551L122.95 53.4641H121.667L121.3 3.82628L118.948 2.49966L119.335 53.4641H118.058V52.4386L117.662 1.77084L114.516 0L111.438 1.88679L111.828 52.4281V53.4641H110.552L110.166 2.66229L107.869 4.07324L108.232 53.4641H106.957L106.603 4.85626L103.572 6.71444L103.898 53.4716H96V55H154V53.4641ZM140.965 31.6297L139.906 31.6508L139.885 30.5726L140.944 30.5546L140.965 31.6297ZM140.931 29.8227L139.872 29.8423L139.853 28.7671L140.912 28.7461L140.931 29.8227ZM140.898 28.0157L139.84 28.0383L139.819 26.9602L140.878 26.9376L140.898 28.0157ZM140.864 26.2705L139.806 26.2916L139.788 25.2149L140.846 25.1953L140.864 26.2705ZM140.833 24.4635L139.775 24.4816L139.754 23.4034L140.811 23.3854L140.833 24.4635ZM140.78 21.5754L140.798 22.6535L139.741 22.6716L139.721 21.5964L140.78 21.5754ZM138.768 31.6749L137.712 31.6975L137.692 30.6193L138.75 30.6012L138.768 31.6749ZM138.737 29.8679L137.678 29.8875L137.66 28.8093L138.715 28.7897L138.737 29.8679ZM138.701 28.0609L137.646 28.0835L137.625 27.0053L138.684 26.9828L138.701 28.0609ZM138.67 26.3157L137.612 26.3383L137.594 25.2601L138.65 25.2405L138.67 26.3157ZM138.617 23.4305L138.635 24.5087L137.581 24.5268L137.56 23.4486L138.617 23.4305ZM136.617 31.7125L135.558 31.7351L135.537 30.6569L136.596 30.6344L136.617 31.7125ZM136.583 29.9055L135.524 29.9266L135.506 28.8485L136.563 28.8304L136.583 29.9055ZM136.55 28.0986L135.493 28.1166L135.471 27.0415L136.529 27.0204L136.55 28.0986ZM136.516 26.3533L135.459 26.3714L135.44 25.2962L136.498 25.2752L136.516 26.3533ZM136.485 24.5463L135.427 24.5674L135.406 23.4893L136.463 23.4712L136.485 24.5463ZM136.432 21.6612L136.45 22.7379L135.393 22.7574L135.373 21.6823L136.432 21.6612ZM136.683 53.4099L136.667 49.1002L138.244 48.1651L139.829 49.0882L139.846 53.4701H136.683V53.4099ZM116.102 6.7295H117.039V7.68118H116.102V6.7295ZM116.102 8.33018H117.039V9.28186H116.102V8.33018ZM116.102 9.92786H117.039V10.8795H116.102V9.92786ZM116.102 11.4713H117.039V12.4155H116.102V11.4713ZM116.102 13.069H117.039V14.0116H116.102V13.069ZM116.102 14.6682H117.039V15.6199H116.102V14.6682ZM116.102 17.9463H117.039V18.898H116.102V17.9463ZM116.102 19.547H117.039V20.4987H116.102V19.547ZM116.102 21.1447H117.039V22.0964H116.102V21.1447ZM116.102 22.6882H117.039V23.6398H116.102V22.6882ZM116.102 24.2888H117.039V25.239H116.102V24.2888ZM116.102 25.885H117.039V26.8367H116.102V25.885ZM116.102 29.1647H117.039V30.1149H116.102V29.1647ZM116.102 30.7639H117.039V31.7155H116.102V30.7639ZM116.102 32.3645H117.039V33.3162H116.102V32.3645ZM116.102 33.905H117.039V34.8567H116.102V33.905ZM116.102 35.5057H117.039V36.4559H116.102V35.5057ZM116.102 37.1018H117.039V38.0535H116.102V37.1018ZM114.162 6.7295H115.097V7.68118H114.162V6.7295ZM114.162 8.33018H115.097V9.28186H114.162V8.33018ZM114.162 9.92786H115.097V10.8795H114.162V9.92786ZM114.162 11.4713H115.097V12.4155H114.162V11.4713ZM114.162 13.069H115.097V14.0116H114.162V13.069ZM114.162 14.6682H115.097V15.6199H114.162V14.6682ZM114.162 17.9463H115.097V18.898H114.162V17.9463ZM114.162 19.547H115.097V20.4987H114.162V19.547ZM114.162 21.1447H115.097V22.0964H114.162V21.1447ZM114.162 22.6882H115.097V23.6398H114.162V22.6882ZM114.162 24.2888H115.097V25.239H114.162V24.2888ZM114.162 25.885H115.097V26.8367H114.162V25.885ZM114.162 29.1647H115.097V30.1149H114.162V29.1647ZM114.162 30.7639H115.097V31.7155H114.162V30.7639ZM114.162 32.3645H115.097V33.3162H114.162V32.3645ZM114.162 33.905H115.097V34.8567H114.162V33.905ZM114.162 35.5057H115.097V36.4559H114.162V35.5057ZM114.162 37.1018H115.097V38.0535H114.162V37.1018ZM112.26 6.7295H113.197V7.68118H112.26V6.7295ZM112.26 8.33018H113.197V9.28186H112.26V8.33018ZM112.26 9.92786H113.197V10.8795H112.26V9.92786ZM112.26 11.4713H113.197V12.4155H112.26V11.4713ZM112.26 13.069H113.197V14.0116H112.26V13.069ZM112.26 14.6682H113.197V15.6199H112.26V14.6682ZM112.26 17.9463H113.197V18.898H112.26V17.9463ZM112.26 19.547H113.197V20.4987H112.26V19.547ZM112.26 21.1447H113.197V22.0964H112.26V21.1447ZM112.26 22.6882H113.197V23.6398H112.26V22.6882ZM112.26 24.2888H113.197V25.239H112.26V24.2888ZM112.26 25.885H113.197V26.8367H112.26V25.885ZM112.26 29.1647H113.197V30.1149H112.26V29.1647ZM112.26 30.7639H113.197V31.7155H112.26V30.7639ZM112.26 32.3645H113.197V33.3162H112.26V32.3645ZM112.26 33.905H113.197V34.8567H112.26V33.905ZM112.26 35.5057H113.197V36.4559H112.26V35.5057ZM112.26 37.1018H113.197V38.0535H112.26V37.1018ZM113.431 52.4175L113.364 48.671L114.842 47.7676L116.349 48.6183L116.418 52.4235L116.438 53.4776H113.45L113.431 52.4175Z"
                                fill="url(#paint0_linear_336_3610)" />
                            <path
                                d="M94 39.6405V40H89V39.6405C89.6398 39.6405 90.6009 39.427 90.6009 36.6419V24.6595V19.3182C90.6009 19.1523 90.6009 18.9925 90.5885 18.8481C90.4961 16.6851 89.7267 16.3533 89.1255 16.318C89.0814 16.318 89.0441 16.318 89.0014 16.318V16H93.9752V16.3211C93.3367 16.3211 92.3935 16.5699 92.3935 19.3213V36.6419C92.4018 39.427 93.3671 39.6405 94 39.6405Z"
                                fill="#312F4C" />
                            <path
                                d="M82.2826 42.524C81.4429 42.8942 81.0629 43.2131 80.628 44C80.1402 43.2869 79.7601 42.968 79 42.5C79.8414 42.0817 80.195 41.7372 80.628 41C81.0081 41.7628 81.2255 42.1555 82.2826 42.524ZM85.9947 42.524C85.1533 42.8942 84.7997 43.2131 84.3402 44C83.9502 43.3804 83.3891 42.8635 82.7121 42.5C83.5518 42.0817 83.9053 41.7372 84.3402 41C84.7255 41.7628 84.9694 42.1555 86 42.524H85.9947Z"
                                fill="#312F4C" />
                            <path
                                d="M68.344 42.524C67.7441 42.8942 67.4726 43.2131 67.1619 44C66.8133 43.2869 66.5418 42.968 66 42.5C66.5999 42.0817 66.8525 41.7372 67.1619 41C67.4334 41.7628 67.5888 42.1555 68.344 42.524ZM70.9962 42.524C70.3951 42.8942 70.1437 43.2131 69.8141 44C69.5355 43.3804 69.1346 42.8635 68.6509 42.5C69.2508 42.0817 69.5034 41.7372 69.8141 41C70.0894 41.7628 70.2637 42.1555 71 42.524H70.9962Z"
                                fill="#312F4C" />
                            <path
                                d="M56.3429 36.016C55.7436 36.2628 55.4724 36.4754 55.162 37C54.8138 36.5246 54.5425 36.312 54 36C54.6006 35.7212 54.8529 35.4915 55.162 35C55.437 35.5096 55.5922 35.7703 56.3429 36.016ZM58.9924 36.016C58.3919 36.2628 58.1395 36.4754 57.8115 37C57.5332 36.587 57.1327 36.2423 56.6495 36C57.2488 35.7212 57.5011 35.4915 57.8115 35C58.0903 35.5096 58.2644 35.7703 59 36.016H58.9924Z"
                                fill="#312F4C" />
                            <path
                                d="M30.8167 34.5302C30.7765 34.3901 30.7266 34.2499 30.6712 34.1097C30.1752 32.8748 29.1167 31.9103 27.9003 31.3917C27.6158 31.2707 27.3208 31.1769 27.0192 31.1113C26.8515 31.0721 26.6742 31.0441 26.5066 31.0216C26.4622 31.0216 26.429 31.0216 26.3832 31.009C25.8983 30.981 25.3303 31.009 24.8953 31.2291C24.506 31.4348 24.1787 31.7428 23.9476 32.1206C23.7352 32.4389 23.6017 32.8044 23.5583 33.1859C23.5306 33.4733 23.5583 33.8125 23.7814 33.999C23.9269 34.1055 24.0947 34.1765 24.2718 34.2064C25.9662 34.6073 27.6606 34.997 29.355 35.3909C29.357 36.0644 29.2474 36.7334 29.0308 37.3702C28.8142 38.0113 28.3975 38.5638 27.8435 38.9444C27.7863 38.9813 27.7271 39.015 27.6662 39.0453C27.5107 39.1243 27.3484 39.1886 27.1813 39.2374C27.1251 39.258 27.0671 39.2731 27.0081 39.2822C26.9313 39.3031 26.853 39.3181 26.7739 39.3271C26.6948 39.3419 26.6147 39.3513 26.5343 39.3551C26.4529 39.3644 26.3709 39.3682 26.289 39.3663H26.2724C25.8508 39.366 25.4323 39.2925 25.0352 39.1491C24.7124 39.0257 24.3605 38.8112 24.2039 38.4846C23.9975 38.0389 24.2261 37.5651 24.4145 37.1529C24.603 36.7408 24.7609 36.2909 24.5711 35.9012C24.0474 36.1815 23.5237 36.4619 23 36.7422C23.2286 37.5833 23.5237 38.4678 24.1638 39.0537C24.6764 39.5219 25.3456 39.7476 26.0203 39.8766C26.0203 39.8766 26.0203 39.8766 26.0313 39.8766C26.0715 39.8867 26.1122 39.8942 26.1533 39.899C27.2187 40.0854 28.3783 40.0518 29.2857 39.4715C30.1447 38.9107 30.6795 37.9421 30.8915 36.9329C31.0582 36.1376 31.0325 35.3133 30.8167 34.5302ZM25.4508 34.191C25.2833 34.1606 25.1271 34.0845 24.9992 33.9709C24.7983 33.7859 24.7872 33.5322 24.8703 33.256C25.0269 32.7136 25.4564 31.6482 26.314 31.4113C26.5426 31.3432 26.7849 31.3374 27.0164 31.3945C28.3423 31.6987 29.2677 33.1986 29.3522 35.0713L25.4508 34.191Z"
                                fill="#312F4C" />
                            <path
                                d="M27.2455 32C26.8717 32.3794 26.8292 32.467 26 32.1932C26.4571 32.4628 26.3551 33.4441 26.2158 34C26.7613 33.3773 27.4545 32.7811 28 32.7741C27.3917 32.5962 27.1096 32.549 27.2455 32Z"
                                fill="#312F4C" />
                            <path
                                d="M37.4879 28C37.8853 27.2131 38.2326 26.8942 39 26.524C38.0307 26.1554 37.8352 25.7628 37.4879 25C37.0921 25.7372 36.769 26.0817 36 26.5C36.6947 26.9696 37.0404 27.2869 37.4879 28Z"
                                fill="#312F4C" />
                            <path
                                d="M40.9838 28C41.5439 27.2131 41.9747 26.8942 43 26.524C41.7442 26.1554 41.447 25.7628 40.9838 25C40.454 25.7372 40.0232 26.0817 39 26.5C39.8245 26.864 40.508 27.3808 40.9838 28Z"
                                fill="#312F4C" />
                            <path
                                d="M43 30.1733V30.3804C42.2951 30.3804 41.2948 30.5446 41.2948 32.3124V36.3852C41.312 37.0196 41.1953 37.6504 40.9523 38.2359C40.6767 38.8484 40.1898 39.3392 39.5821 39.617C39.2355 39.7707 38.869 39.8741 38.4935 39.9239C38.3291 39.9239 38.1647 39.9653 38.0003 39.9653C37.8358 39.9653 37.6303 39.9791 37.4446 39.9791C36.5828 40.0144 35.7257 40.0344 34.8899 39.7858C34.2146 39.6066 33.6276 39.1847 33.2395 38.5996C32.8285 37.9504 32.7051 37.1555 32.7051 36.3898V18.1469C32.7051 16.3806 31.6988 16.2148 31 16.2148V16.0077H32.8117V16H36.0515V16.2148C35.5247 16.2148 34.8259 16.3391 34.593 17.3888V36.3852C34.5884 36.7503 34.6133 37.1152 34.6676 37.4763C34.6813 37.5453 34.695 37.6144 34.7087 37.6896C34.7686 38.1604 34.9779 38.5991 35.3055 38.9402C35.3777 38.9864 35.4529 39.0275 35.5308 39.063C35.9858 39.2962 36.4867 39.4236 36.997 39.4359C37.5944 39.4249 38.1782 39.2538 38.6884 38.9402C39.2091 38.4568 39.4009 37.6205 39.4009 36.3852V30.1733H43Z"
                                fill="#312F4C" />
                            <path
                                d="M87 30.1688V30.376C86.3304 30.376 85.366 30.5402 85.366 32.3085V36.3821C85.3825 37.0167 85.2706 37.6476 85.0378 38.2332C84.7746 38.8466 84.3077 39.3378 83.7248 39.6147C83.3899 39.7679 83.0364 39.8712 82.6744 39.9216C82.5183 39.9216 82.3607 39.9631 82.2032 39.9631C81.6196 39.9769 81.036 40.0183 80.4525 39.9907C80.0369 39.9701 79.6249 39.9006 79.2241 39.7835C78.7926 39.6434 78.399 39.3971 78.0759 39.0652C77.4792 39.6791 76.5733 39.9861 75.3332 39.9861C74.4747 39.9831 73.6369 39.7082 72.929 39.1972C72.518 38.9008 72.1701 38.5177 71.9077 38.0721C71.8202 38.314 71.7008 38.5418 71.5532 38.749C71.5249 38.7922 71.4942 38.8337 71.4613 38.8733C70.9171 39.5425 70.071 39.8679 69.2438 39.9569C68.4469 40.0579 67.6387 39.9466 66.8935 39.6331C66.6761 39.5385 66.4676 39.4229 66.2706 39.2877C65.7959 38.9705 65.3966 38.5431 65.1034 38.0383C65.1034 38.0659 65.1034 38.0859 65.0903 38.1135C65.0896 38.1507 65.0852 38.1878 65.0772 38.224C65.0453 38.4649 64.9965 38.7029 64.9313 38.9362C64.918 38.9642 64.9091 38.9943 64.905 39.0252C64.8506 39.1778 64.7802 39.3235 64.6949 39.4596C64.4032 39.9017 63.9655 39.9984 63.4811 39.9984C62.883 39.9984 62.2936 39.9846 61.7028 39.9846H56.3851C55.6367 39.9846 54.8882 39.9846 54.1413 39.9984H51.8829C50.8325 39.9155 49.8157 39.6315 49.1796 38.6722C48.9301 38.3069 48.8878 37.7513 48.8309 37.3184C48.72 36.4282 48.685 34.1811 48.6544 33.2831C48.634 32.4481 48.7915 31.3645 48.1161 30.7428C47.799 30.4827 47.4007 30.3573 47 30.3914V30.1765H50.4459C50.478 31.4044 50.3934 35.7651 50.478 36.9807C50.4915 37.3965 50.5693 37.8071 50.7085 38.1964C50.8701 38.6154 51.1708 38.9585 51.5547 39.1619C51.9806 39.408 52.4451 39.5718 52.926 39.6454C53.4111 39.6907 53.8983 39.7045 54.3849 39.6868H62.1929C62.4231 39.686 62.6469 39.607 62.8309 39.4615C63.015 39.316 63.1494 39.1118 63.2142 38.8794C63.3092 38.5106 63.349 38.1284 63.3323 37.7467V33.3031H66.7768V33.518C66.515 33.4775 66.2477 33.5172 66.0069 33.6324C65.766 33.7475 65.5618 33.9332 65.4186 34.1672C65.2465 34.5119 65.1564 34.8953 65.156 35.2847C65.1297 35.7344 65.137 36.1826 65.1428 36.6246C65.1416 36.6821 65.144 36.7395 65.1501 36.7965V36.8457C65.152 37.0003 65.1671 37.1544 65.1953 37.3061C65.2747 37.6452 65.4275 37.9604 65.6418 38.2271C65.8983 38.5577 66.2178 38.8281 66.5798 39.0206C67.1286 39.3197 67.7422 39.4625 68.3597 39.4351C68.8966 39.4074 69.4553 39.2355 69.8098 38.8073C70.0856 38.4757 70.1964 38.0275 70.2621 37.5916C70.478 36.1703 70.3015 34.7198 70.3613 33.2939H73.8203V33.518C73.4613 33.4887 73.1029 33.583 72.7991 33.7866C72.4577 34.0352 72.2812 34.4712 72.2156 34.8979C72.1692 35.3315 72.1584 35.7685 72.1835 36.2041C72.1835 36.3837 72.1835 36.5632 72.1703 36.7428V36.7766C72.1665 36.7875 72.1665 36.7995 72.1703 36.8104C72.158 37.0549 72.1253 37.2979 72.0726 37.5364C72.2983 38.0974 72.6771 38.5754 73.1609 38.9101C73.6897 39.2673 74.3051 39.4565 74.9335 39.455C76.6068 39.455 77.132 38.5095 77.151 36.4865C77.1437 36.4548 77.1393 36.4224 77.1379 36.3898V18.1397C77.1379 16.373 76.1808 16.2072 75.5039 16.2072V16H80.5167V16.2134C80.4837 16.2096 80.4504 16.2096 80.4175 16.2134C80.3854 16.2134 80.3518 16.2134 80.3197 16.2134C80.2372 16.2115 80.155 16.2234 80.0761 16.2487C79.5188 16.3592 78.9542 16.7797 78.9542 18.1259V36.3821C78.9542 36.4236 78.9469 36.4589 78.9469 36.4926C78.96 37.6668 79.1511 38.4681 79.6297 38.9378C79.9522 39.1505 80.3109 39.2954 80.6859 39.3645C80.8718 39.4052 81.0607 39.4283 81.2505 39.4335C81.821 39.4216 82.3784 39.2505 82.8655 38.9378C83.3644 38.4543 83.5541 37.6177 83.5541 36.3821V30.1688H87Z"
                                fill="#312F4C" />
                            <path
                                d="M5.54901 55.555H8.64301C9.02001 55.555 10.164 53.436 10.58 53.436L10.086 55.516C9.81301 55.607 9.12401 55.75 8.46101 55.75H2.89701V55.62C3.27401 55.62 3.83301 55.542 3.83301 54.528V47.495C3.83301 46.494 3.28701 46.403 2.89701 46.403V46.286H7.65501C8.31801 46.286 9.00701 46.429 9.28001 46.52L9.77401 48.6C9.35801 48.6 8.21401 46.481 7.83701 46.481H5.25001C5.05501 46.624 4.89901 46.975 4.89901 47.508V50.55H7.86301C8.11001 50.55 8.13601 49.172 8.40901 49.172L9.26701 52.136C8.99401 52.136 8.11001 50.758 7.86301 50.758H4.89901V54.398C4.89901 54.944 5.22401 55.36 5.54901 55.555ZM11.4787 55.62C11.8557 55.62 12.4277 55.542 12.4277 54.528V47.495C12.4277 46.494 11.8817 46.403 11.4917 46.403V46.286H14.4427V46.403C14.0527 46.403 13.5067 46.494 13.5067 47.495V55.555H16.0677C16.4447 55.555 17.5887 53.436 18.0047 53.436L17.5107 55.516C17.2247 55.607 16.5487 55.75 15.8857 55.75H11.4787V55.62ZM21.9879 55.75H19.0239V55.62C19.4009 55.62 19.9729 55.542 19.9729 54.528V47.495C19.9729 46.494 19.4139 46.403 19.0239 46.403V46.286H21.9749V46.403C21.5979 46.403 21.0389 46.494 21.0389 47.495V54.528C21.0389 55.542 21.6109 55.62 21.9879 55.62V55.75ZM24.7653 55.75V55.62C25.1553 55.62 25.7273 55.542 25.7273 54.528V46.481H24.1413C23.7643 46.481 22.6203 48.6 22.2043 48.6L22.6983 46.52C22.9713 46.429 23.6473 46.286 24.3103 46.286H28.3273C29.0033 46.286 29.6793 46.429 29.9523 46.52L30.4463 48.6C30.0303 48.6 28.8863 46.481 28.5093 46.481H26.7933V54.528C26.7933 55.542 27.3523 55.62 27.7423 55.62V55.75H24.7653ZM33.6057 55.555H36.6997C37.0767 55.555 38.2207 53.436 38.6367 53.436L38.1427 55.516C37.8697 55.607 37.1807 55.75 36.5177 55.75H30.9537V55.62C31.3307 55.62 31.8897 55.542 31.8897 54.528V47.495C31.8897 46.494 31.3437 46.403 30.9537 46.403V46.286H35.7117C36.3747 46.286 37.0637 46.429 37.3367 46.52L37.8307 48.6C37.4147 48.6 36.2707 46.481 35.8937 46.481H33.3067C33.1117 46.624 32.9557 46.975 32.9557 47.508V50.55H35.9197C36.1667 50.55 36.1927 49.172 36.4657 49.172L37.3237 52.136C37.0507 52.136 36.1667 50.758 35.9197 50.758H32.9557V54.398C32.9557 54.944 33.2807 55.36 33.6057 55.555ZM45.0398 55.75V55.62C45.4298 55.62 46.0018 55.542 46.0018 54.528V46.481H44.4158C44.0388 46.481 42.8948 48.6 42.4788 48.6L42.9728 46.52C43.2458 46.429 43.9218 46.286 44.5848 46.286H48.6018C49.2778 46.286 49.9538 46.429 50.2268 46.52L50.7208 48.6C50.3048 48.6 49.1608 46.481 48.7838 46.481H47.0678V54.528C47.0678 55.542 47.6268 55.62 48.0168 55.62V55.75H45.0398ZM50.3221 51.005C50.6471 47.456 53.5461 46.065 55.4051 46.065C57.2771 46.065 59.9291 47.456 59.6041 51.005C59.3311 53.943 56.9521 55.958 54.4951 55.958C52.0641 55.958 50.0491 53.943 50.3221 51.005ZM58.4341 51.005C58.4081 47.612 56.1591 46.286 54.9241 46.286C53.6891 46.286 51.4921 47.612 51.5181 51.005C51.5571 54.424 53.7801 55.75 55.0151 55.75C56.2501 55.75 58.4731 54.424 58.4341 51.005ZM54.3131 50.641C54.9761 50.68 54.9761 50.537 55.1061 49.835C55.1971 50.68 55.4051 50.628 55.8861 50.628C55.5091 50.875 55.2361 52.019 55.0671 53.15C54.9761 52.292 54.7161 50.836 54.3131 50.641ZM67.6011 55.828L65.6641 50.641L63.4411 55.828H63.2461L60.5941 47.508C60.2691 46.507 59.6971 46.416 59.3201 46.416V46.286H62.2841V46.416C61.9071 46.416 61.3741 46.507 61.6991 47.508L63.8441 54.034L65.5211 50.264L64.4941 47.508C64.1301 46.52 63.5971 46.416 63.2201 46.416V46.286H67.6011L66.2491 49.289L68.0561 54.229L70.1231 47.495C70.4611 46.416 70.4221 46.39 68.4851 46.39V46.273H71.3061V46.39C70.9161 46.39 70.6301 46.663 70.3701 47.495L67.7961 55.828H67.6011ZM66.1191 48.938L67.1851 46.559H65.0921C65.3261 46.754 65.4301 47.053 65.5991 47.508L66.1191 48.938ZM74.7639 55.555H77.8579C78.2349 55.555 79.3789 53.436 79.7949 53.436L79.3009 55.516C79.0279 55.607 78.3389 55.75 77.6759 55.75H72.1119V55.62C72.4889 55.62 73.0479 55.542 73.0479 54.528V47.495C73.0479 46.494 72.5019 46.403 72.1119 46.403V46.286H76.8699C77.5329 46.286 78.2219 46.429 78.4949 46.52L78.9889 48.6C78.5729 48.6 77.4289 46.481 77.0519 46.481H74.4649C74.2699 46.624 74.1139 46.975 74.1139 47.508V50.55H77.0779C77.3249 50.55 77.3509 49.172 77.6239 49.172L78.4819 52.136C78.2089 52.136 77.3249 50.758 77.0779 50.758H74.1139V54.398C74.1139 54.944 74.4389 55.36 74.7639 55.555ZM83.4009 55.75H80.4239V55.62C80.8009 55.62 81.3729 55.542 81.3729 54.528V47.508C81.3729 46.494 80.8139 46.403 80.4369 46.403V46.286H84.1809C85.6629 46.286 86.9759 46.663 86.9759 48.574C86.9759 50.628 85.4419 51.122 84.2329 51.356C86.9369 52.149 85.9229 57.401 89.8749 57.401V57.518L89.0169 57.531C84.2589 57.531 85.9749 51.395 83.4529 51.395H82.4389V54.528C82.4389 55.542 83.0109 55.62 83.4009 55.62V55.75ZM82.4389 50.888L83.6349 51.174C84.7919 51.304 85.8189 50.953 85.8319 48.704C85.8319 46.533 84.8829 46.481 83.7259 46.481H83.2969C82.9199 46.481 82.4389 46.559 82.4389 47.508V50.888ZM88.7599 47.833C88.7599 50.212 94.6879 50.498 94.6879 53.254C94.6879 54.944 92.9459 55.958 90.8399 55.958C90.2419 55.958 88.3179 55.659 87.7719 55.464L87.8109 54.333C89.1759 54.333 89.6699 55.763 90.8399 55.763C92.2569 55.763 93.5309 54.996 93.5309 53.618C93.5309 51.252 87.9019 51.018 87.9019 48.34C87.9019 46.975 89.3969 46.13 90.8269 46.13C91.4379 46.13 93.2579 46.429 93.5959 46.624L93.5569 47.742C92.8679 47.742 92.0099 46.325 90.8269 46.325C89.7999 46.325 88.7599 46.962 88.7599 47.833Z"
                                fill="#312F4C" />
                            <path
                                d="M91.4247 42.9421C91.0309 42.8755 90.9642 42.5546 91.0467 42.1915C91.2151 41.4654 91.755 41.1662 92.2393 41.2478L92.2552 41.0479C91.1801 40.8671 90.2511 41.2084 90.0939 41.8951C89.9812 42.3792 90.1971 42.87 91.1325 43.0876C90.7069 43.1039 90.2337 43.1338 89.7398 43.1841C88.0533 43.3582 89.7779 44 89.7779 44C89.9145 43.5173 91.0039 43.2848 91.8582 43.1746C92.209 43.1697 92.5586 43.1388 92.9031 43.0822L93 42.3846C92.5014 42.3016 92.2123 43.0754 91.4247 42.9421Z"
                                fill="#312F4C" />
                            <path d="M101 12H1.39537H0.477206H0V56H1.39537V13.3801H101V12Z" fill="#312F4C" />
                            <path d="M154.72 12H153.615H128V13.3938H153.615V55H155V12H154.72Z" fill="#312F4C" />
                            <path
                                d="M41.0102 32C40.9172 31.5871 41.4495 31.0091 43 31C41.478 31.0413 41.0102 31.5871 41.0102 32Z"
                                fill="#CBCBCA" />
                            <path
                                d="M18.8979 31L18.9186 35.9485C18.9186 36.691 18.9186 37.4418 18.6871 38.1591C18.6126 38.4359 18.4533 38.6932 18.224 38.9072C18.0308 39.0569 17.8013 39.1726 17.5501 39.247C16.6493 39.5357 15.6451 39.5302 14.7491 39.2316C14.5173 39.1619 14.3061 39.0538 14.1288 38.9142C13.8333 38.6653 13.7279 38.3115 13.5776 37.9872C13.482 37.7475 13.3075 37.5333 13.073 37.3677C13.0146 37.3297 12.9501 37.2981 12.8812 37.274C12.7879 37.2405 12.7568 37.2321 12.7223 37.3146L12.5184 37.7984L12 39.0247C12.5958 39.4388 13.3136 39.7215 14.0839 39.8455C14.8508 39.9666 15.6322 40.0168 16.4131 39.9951C17.6953 39.9853 19.0949 39.8622 20.0055 39.1323C20.51 38.6988 20.8423 38.1528 20.9593 37.5649C21.074 36.9806 21.1162 36.3885 21.0855 35.7975L21.0595 33.1477C21.0595 32.6178 21.0716 32.0291 21.5053 31.6376C21.8699 31.3062 22.4522 31.186 23 31.1916V31H18.8979Z"
                                fill="#312F4C" />
                            <path
                                d="M10.2749 31L10.2922 35.9485C10.2922 36.691 10.2922 37.4418 10.0817 38.1592C10.0132 38.4366 9.86671 38.694 9.65593 38.9072C9.4811 39.0572 9.27291 39.173 9.04477 39.247C8.22513 39.5357 7.31164 39.5302 6.49647 39.2316C6.28639 39.1615 6.09488 39.0534 5.93401 38.9142C5.66536 38.6653 5.56952 38.3116 5.43126 37.9872C5.34488 37.7476 5.18684 37.5334 4.97408 37.3677C4.92076 37.3299 4.86214 37.2984 4.79969 37.274C4.71328 37.2405 4.68657 37.2321 4.65357 37.3146L4.47133 37.7984L4 39.0247C4.54117 39.4387 5.19326 39.7214 5.89316 39.8455C6.59099 39.9666 7.30202 40.0168 8.01257 39.9951C9.17832 39.9853 10.4509 39.8622 11.2789 39.1323C11.737 38.6985 12.039 38.1526 12.1461 37.5649C12.2504 36.9806 12.2888 36.3885 12.2608 35.7975L12.2341 33.1477C12.2341 32.6178 12.2451 32.0291 12.641 31.6376C12.9709 31.3062 13.502 31.186 14 31.1916V31H10.2749Z"
                                fill="#312F4C" />
                            <path
                                d="M11.4842 29C11.8808 27.9506 12.2269 27.5255 13 27.0318C12.0349 26.5414 11.8366 26.0176 11.4842 25C11.0888 25.9824 10.7667 26.4427 10 27.0084C10.6935 27.631 11.0396 28.0561 11.4842 29Z"
                                fill="#312F4C" />
                            <defs>
                                <linearGradient id="paint0_linear_336_3610" x1="125.001" y1="101.024" x2="125.001"
                                    y2="22.9622" gradientUnits="userSpaceOnUse">
                                    <stop stop-color="#DDC18E" />
                                    <stop offset="1" stop-color="#B1915D" />
                                </linearGradient>
                            </defs>
                        </svg>