  <svg class="mb-4" width="335" height="128" viewBox="0 0 335 128" fill="none"
                            xmlns="http://www.w3.org/2000/svg">
                            <g clip-path="url(#clip0_336_3496)">
                                <path
                                    d="M332.614 115.935H323.767L323.621 50.3007L316.478 46.2162L316.643 115.935H313.672L313.5 44.5051L308.075 41.4012L308.26 115.928H305.283L305.094 39.6999L297.848 35.5537L290.633 39.7518L290.822 115.759V115.931H287.854L287.669 41.4824L282.27 44.6285L282.442 115.931H279.464L279.299 46.3558L272.191 50.4955L272.344 115.931H271.159L270.435 14.2386L263.646 10.4788L264.425 115.935H261.607L260.802 8.90732L255.636 6.0469L256.487 115.935H253.682V113.723L252.811 4.47545L245.902 0.657227L239.142 4.72546L240 113.701V115.935H237.198L236.35 6.39755L231.305 9.4398L232.103 115.935H229.301L228.525 11.1281L221.869 15.1347L222.584 115.951H205.239V119.246H332.614V115.935ZM303.987 68.8561L301.663 68.9015L301.617 66.5768L303.942 66.5379L303.987 68.8561ZM303.913 64.9599L301.588 65.0021L301.546 62.6839L303.87 62.6385L303.913 64.9599ZM303.841 61.0638L301.517 61.1125L301.471 58.7878L303.796 58.7391L303.841 61.0638ZM303.767 57.3007L301.442 57.3462L301.403 55.0247L303.728 54.9825L303.767 57.3007ZM303.698 53.4046L301.374 53.4436L301.328 51.1188L303.65 51.0799L303.698 53.4046ZM303.581 47.1772L303.62 49.5019L301.299 49.5409L301.257 47.2227L303.581 47.1772ZM299.163 68.9535L296.844 69.0022L296.799 66.6775L299.124 66.6385L299.163 68.9535ZM299.094 65.0573L296.77 65.0995L296.731 62.7748L299.046 62.7326L299.094 65.0573ZM299.016 61.1612L296.698 61.2099L296.653 58.8852L298.977 58.8365L299.016 61.1612ZM298.948 57.3981L296.624 57.4468L296.585 55.1221L298.903 55.0799L298.948 57.3981ZM298.831 51.1773L298.87 53.502L296.555 53.541L296.51 51.2163L298.831 51.1773ZM294.438 69.0346L292.114 69.0833L292.068 66.7586L294.393 66.7099L294.438 69.0346ZM294.364 65.1385L292.039 65.1839L292 62.8592L294.322 62.8203L294.364 65.1385ZM294.292 61.2423L291.971 61.2813L291.922 58.9631L294.247 58.9176L294.292 61.2423ZM294.218 57.4793L291.896 57.5183L291.854 55.2001L294.179 55.1546L294.218 57.4793ZM294.15 53.5832L291.825 53.6286L291.779 51.3039L294.101 51.265L294.15 53.5832ZM294.033 47.3623L294.072 49.6838L291.75 49.726L291.708 47.4078L294.033 47.3623ZM294.585 115.818L294.549 106.525L298.013 104.509L301.494 106.499L301.529 115.948H294.585V115.818ZM249.386 15.1671H251.444V17.2191H249.386V15.1671ZM249.386 18.6185H251.444V20.6704H249.386V18.6185ZM249.386 22.0633H251.444V24.1153H249.386V22.0633ZM249.386 25.3913H251.444V27.427H249.386V25.3913ZM249.386 28.8361H251.444V30.8686H249.386V28.8361ZM249.386 32.2842H251.444V34.3362H249.386V32.2842ZM249.386 39.3525H251.444V41.4045H249.386V39.3525ZM249.386 42.8038H251.444V44.8558H249.386V42.8038ZM249.386 46.2487H251.444V48.3006H249.386V46.2487ZM249.386 49.5766H251.444V51.6286H249.386V49.5766ZM249.386 53.028H251.444V55.0767H249.386V53.028ZM249.386 56.4696H251.444V58.5215H249.386V56.4696ZM249.386 63.5411H251.444V65.5898H249.386V63.5411ZM249.386 66.9892H251.444V69.0411H249.386V66.9892ZM249.386 70.4405H251.444V72.4925H249.386V70.4405ZM249.386 73.762H251.444V75.8139H249.386V73.762ZM249.386 77.2133H251.444V79.262H249.386V77.2133ZM249.386 80.6549H251.444V82.7069H249.386V80.6549ZM245.126 15.1671H247.178V17.2191H245.126V15.1671ZM245.126 18.6185H247.178V20.6704H245.126V18.6185ZM245.126 22.0633H247.178V24.1153H245.126V22.0633ZM245.126 25.3913H247.178V27.427H245.126V25.3913ZM245.126 28.8361H247.178V30.8686H245.126V28.8361ZM245.126 32.2842H247.178V34.3362H245.126V32.2842ZM245.126 39.3525H247.178V41.4045H245.126V39.3525ZM245.126 42.8038H247.178V44.8558H245.126V42.8038ZM245.126 46.2487H247.178V48.3006H245.126V46.2487ZM245.126 49.5766H247.178V51.6286H245.126V49.5766ZM245.126 53.028H247.178V55.0767H245.126V53.028ZM245.126 56.4696H247.178V58.5215H245.126V56.4696ZM245.126 63.5411H247.178V65.5898H245.126V63.5411ZM245.126 66.9892H247.178V69.0411H245.126V66.9892ZM245.126 70.4405H247.178V72.4925H245.126V70.4405ZM245.126 73.762H247.178V75.8139H245.126V73.762ZM245.126 77.2133H247.178V79.262H245.126V77.2133ZM245.126 80.6549H247.178V82.7069H245.126V80.6549ZM240.948 15.1671H243.006V17.2191H240.948V15.1671ZM240.948 18.6185H243.006V20.6704H240.948V18.6185ZM240.948 22.0633H243.006V24.1153H240.948V22.0633ZM240.948 25.3913H243.006V27.427H240.948V25.3913ZM240.948 28.8361H243.006V30.8686H240.948V28.8361ZM240.948 32.2842H243.006V34.3362H240.948V32.2842ZM240.948 39.3525H243.006V41.4045H240.948V39.3525ZM240.948 42.8038H243.006V44.8558H240.948V42.8038ZM240.948 46.2487H243.006V48.3006H240.948V46.2487ZM240.948 49.5766H243.006V51.6286H240.948V49.5766ZM240.948 53.028H243.006V55.0767H240.948V53.028ZM240.948 56.4696H243.006V58.5215H240.948V56.4696ZM240.948 63.5411H243.006V65.5898H240.948V63.5411ZM240.948 66.9892H243.006V69.0411H240.948V66.9892ZM240.948 70.4405H243.006V72.4925H240.948V70.4405ZM240.948 73.762H243.006V75.8139H240.948V73.762ZM240.948 77.2133H243.006V79.262H240.948V77.2133ZM240.948 80.6549H243.006V82.7069H240.948V80.6549ZM243.519 113.678L243.373 105.6L246.62 103.652L249.928 105.486L250.081 113.691L250.123 115.964H243.561L243.519 113.678Z"
                                    fill="white" />
                                <path
                                    d="M199.785 85.4146V86.1743H188.012V85.4146C189.518 85.4146 191.781 84.9633 191.781 79.0768V53.7519V42.4628C191.781 42.1121 191.781 41.7745 191.752 41.4693C191.535 36.8978 189.723 36.1965 188.307 36.1218C188.203 36.1218 188.116 36.1218 188.015 36.1218V35.4497H199.726V36.1283C198.223 36.1283 196.002 36.6543 196.002 42.4693V79.0768C196.022 84.9633 198.295 85.4146 199.785 85.4146Z"
                                    fill="white" />
                                <path
                                    d="M175.421 91.6712C173.879 92.4212 173.181 93.0673 172.382 94.6615C171.486 93.2167 170.788 92.5706 169.392 91.6225C170.937 90.7751 171.586 90.077 172.382 88.5835C173.08 90.129 173.479 90.9244 175.421 91.6712ZM182.239 91.6712C180.694 92.4212 180.044 93.0673 179.2 94.6615C178.484 93.4063 177.453 92.359 176.21 91.6225C177.752 90.7751 178.401 90.077 179.2 88.5835C179.908 90.129 180.356 90.9244 182.249 91.6712H182.239Z"
                                    fill="white" />
                                <path
                                    d="M145.395 91.6712C143.852 92.4212 143.154 93.0673 142.356 94.6615C141.459 93.2167 140.761 92.5706 139.368 91.6225C140.911 90.7751 141.56 90.077 142.356 88.5835C143.054 90.129 143.453 90.9244 145.395 91.6712ZM152.213 91.6712C150.667 92.4212 150.021 93.0673 149.174 94.6615C148.458 93.4063 147.427 92.359 146.184 91.6225C147.726 90.7751 148.375 90.077 149.174 88.5835C149.882 90.129 150.33 90.9244 152.223 91.6712H152.213Z"
                                    fill="white" />
                                <path
                                    d="M119.073 77.2781C117.531 78.0281 116.833 78.6742 116.034 80.2684C115.138 78.8236 114.44 78.1775 113.044 77.2294C114.589 76.382 115.238 75.684 116.034 74.1904C116.742 75.7391 117.141 76.5314 119.073 77.2781ZM125.891 77.2781C124.346 78.0281 123.696 78.6742 122.852 80.2684C122.136 79.0132 121.105 77.9659 119.862 77.2294C121.404 76.382 122.053 75.684 122.852 74.1904C123.57 75.7391 124.018 76.5314 125.911 77.2781H125.891Z"
                                    fill="white" />
                                <path
                                    d="M64.7637 73.483C64.6696 73.1583 64.5527 72.8336 64.4228 72.5089C63.2605 69.6485 60.7799 67.4147 57.9292 66.2134C57.2626 65.9333 56.5713 65.7159 55.8643 65.564C55.4714 65.4731 55.0558 65.4082 54.663 65.3562C54.5591 65.3562 54.4812 65.3562 54.374 65.327C53.2376 65.2621 51.9064 65.327 50.887 65.8368C49.9748 66.3133 49.2077 67.0266 48.6661 67.9017C48.1683 68.639 47.8553 69.4854 47.7538 70.3693C47.6889 71.0349 47.7538 71.8206 48.2765 72.2524C48.6175 72.4991 49.0108 72.6636 49.4259 72.7329C53.3967 73.6615 57.3675 74.5641 61.3384 75.4765C61.343 77.0363 61.0862 78.586 60.5786 80.0609C60.071 81.5459 59.0944 82.8255 57.7961 83.7071C57.662 83.7927 57.5233 83.8707 57.3805 83.9409C57.0163 84.1238 56.6358 84.2727 56.2442 84.3857C56.1126 84.4336 55.9767 84.4684 55.8383 84.4896C55.6583 84.5379 55.4748 84.5726 55.2896 84.5935C55.1041 84.6279 54.9164 84.6496 54.7279 84.6584C54.5372 84.68 54.3451 84.6887 54.1532 84.6844H54.1143C53.1261 84.6835 52.1455 84.5133 51.2149 84.1811C50.4584 83.8954 49.6337 83.3986 49.2668 82.6421C48.783 81.6097 49.3188 80.5123 49.7603 79.5577C50.2019 78.6031 50.572 77.5609 50.1272 76.6583C48.8999 77.3077 47.6726 77.957 46.4453 78.6064C46.9811 80.5545 47.6726 82.6032 49.1726 83.9603C50.374 85.0448 51.9422 85.5675 53.5233 85.8662C53.5233 85.8662 53.5233 85.8662 53.5493 85.8662C53.6433 85.8898 53.7388 85.9072 53.835 85.9182C56.3318 86.35 59.0494 86.2721 61.176 84.9279C63.189 83.6292 64.4423 81.3856 64.9391 79.048C65.3297 77.2059 65.2696 75.2967 64.7637 73.483ZM52.1889 72.6972C51.7963 72.6268 51.4303 72.4506 51.1305 72.1875C50.6597 71.7589 50.6337 71.1712 50.8285 70.5316C51.1954 69.2751 52.2019 66.8076 54.2117 66.2588C54.7474 66.101 55.3152 66.0876 55.8578 66.2199C58.965 66.9244 61.1338 70.3985 61.3319 74.7362L52.1889 72.6972Z"
                                    fill="white" />
                                <path
                                    d="M56.4779 68.0996C55.7636 68.986 55.6825 69.1905 54.098 68.5509C54.9714 69.1808 54.7766 71.473 54.5104 72.7717C55.5526 71.3172 56.8773 69.9243 57.9195 69.9081C56.7572 69.4925 56.2182 69.3821 56.4779 68.0996Z"
                                    fill="white" />
                                <path
                                    d="M78.9652 61.7328C79.7639 60.1386 80.462 59.4925 82.0042 58.7425C80.0561 57.9957 79.6633 57.2003 78.9652 55.6548C78.1697 57.1483 77.5204 57.8464 75.9749 58.6938C77.371 59.6451 78.0658 60.288 78.9652 61.7328Z"
                                    fill="white" />
                                <path
                                    d="M85.7932 61.7328C86.6374 60.1386 87.2867 59.4925 88.8322 58.7425C86.9393 57.9957 86.4913 57.2003 85.7932 55.6548C84.9945 57.1483 84.3451 57.8464 82.8029 58.6938C84.0456 59.4312 85.0759 60.4783 85.7932 61.7328Z"
                                    fill="white" />
                                <path
                                    d="M90.7998 65.4078V65.8461C89.2965 65.8461 87.1633 66.1935 87.1633 69.9338V78.5508C87.2 79.893 86.951 81.2277 86.4328 82.4664C85.8452 83.7624 84.8067 84.8009 83.5107 85.3885C82.7716 85.7139 81.9899 85.9325 81.1893 86.0379C80.8386 86.0379 80.488 86.1255 80.1373 86.1255C79.7867 86.1255 79.3483 86.1548 78.9522 86.1548C77.1145 86.2294 75.2866 86.2716 73.5041 85.7457C72.0639 85.3667 70.8121 84.474 69.9846 83.2359C69.108 81.8625 68.845 80.1807 68.845 78.5605V39.9627C68.845 36.2256 66.6988 35.875 65.2086 35.875V35.4366H69.0722V35.4204H75.9814V35.875C74.858 35.875 73.3677 36.138 72.871 38.3588V78.5508C72.8612 79.3233 72.9144 80.0954 73.0301 80.8593C73.0593 81.0054 73.0885 81.1515 73.1177 81.3105C73.2455 82.3068 73.6919 83.235 74.3905 83.9567C74.5443 84.0545 74.7049 84.1413 74.871 84.2164C75.8412 84.7098 76.9096 84.9794 77.9977 85.0054C79.2718 84.9822 80.5168 84.6202 81.6048 83.9567C82.7152 82.9339 83.1244 81.1644 83.1244 78.5508V65.4078H90.7998Z"
                                    fill="white" />
                                <path
                                    d="M186.392 65.4081V65.8465C184.902 65.8465 182.755 66.1939 182.755 69.9342V78.5511C182.792 79.8934 182.543 81.2281 182.025 82.4668C181.439 83.7642 180.4 84.8032 179.103 85.3889C178.358 85.713 177.571 85.9316 176.765 86.0382C176.418 86.0382 176.067 86.1259 175.716 86.1259C174.418 86.1551 173.119 86.2428 171.82 86.1844C170.895 86.1407 169.978 85.9937 169.086 85.746C168.126 85.4496 167.25 84.9288 166.531 84.2265C165.203 85.5253 163.187 86.1746 160.427 86.1746C158.516 86.1683 156.652 85.5868 155.076 84.5058C154.162 83.879 153.388 83.0684 152.804 82.1259C152.609 82.6376 152.343 83.1196 152.015 83.5577C151.952 83.6492 151.883 83.737 151.81 83.8207C150.599 85.2363 148.716 85.9246 146.875 86.1129C145.102 86.3266 143.303 86.091 141.645 85.4278C141.161 85.2279 140.697 84.9833 140.258 84.6973C139.202 84.0264 138.313 83.1223 137.661 82.0544C137.661 82.1129 137.661 82.1551 137.631 82.2135C137.63 82.2923 137.62 82.3706 137.602 82.4473C137.531 82.9568 137.423 83.4603 137.278 83.9538C137.248 84.013 137.228 84.0766 137.219 84.1421C137.098 84.4649 136.941 84.7731 136.752 85.061C136.102 85.996 135.128 86.2006 134.05 86.2006C132.719 86.2006 131.407 86.1714 130.092 86.1714H118.258C116.592 86.1714 114.927 86.1714 113.264 86.2006H108.238C105.901 86.0253 103.638 85.4246 102.222 83.3954C101.667 82.6226 101.573 81.4473 101.446 80.5317C101.199 78.6485 101.121 73.8952 101.053 71.9959C101.008 70.2296 101.358 67.9374 99.8551 66.6224C99.1495 66.0722 98.2631 65.8069 97.3713 65.8789V65.4244H105.04C105.112 68.0218 104.923 77.2459 105.112 79.8174C105.142 80.6967 105.315 81.5653 105.625 82.3888C105.984 83.2752 106.653 84.0009 107.508 84.4311C108.456 84.9518 109.489 85.2982 110.56 85.4538C111.639 85.5497 112.723 85.5789 113.807 85.5415H131.183C131.696 85.5398 132.194 85.3726 132.603 85.0649C133.013 84.7571 133.312 84.3253 133.456 83.8337C133.668 83.0534 133.756 82.2451 133.719 81.4375V72.0381H141.385V72.4926C140.802 72.407 140.207 72.491 139.671 72.7346C139.135 72.9781 138.681 73.3709 138.362 73.866C137.979 74.5951 137.778 75.4061 137.778 76.2297C137.719 77.181 137.735 78.1291 137.748 79.0641C137.746 79.1856 137.751 79.3071 137.765 79.4278V79.5317C137.769 79.8587 137.802 80.1847 137.865 80.5057C138.042 81.223 138.382 81.8897 138.859 82.4538C139.43 83.1532 140.141 83.725 140.946 84.1324C142.168 84.7649 143.533 85.0671 144.908 85.009C146.102 84.9506 147.346 84.5869 148.135 83.6811C148.748 82.9798 148.995 82.0317 149.141 81.1096C149.622 78.1031 149.229 75.0349 149.362 72.0186H157.06V72.4926C156.261 72.4307 155.464 72.6301 154.788 73.0608C154.028 73.5868 153.635 74.5089 153.489 75.4115C153.386 76.3287 153.362 77.2532 153.417 78.1745C153.417 78.5544 153.417 78.9343 153.388 79.3141V79.3856C153.38 79.4086 153.38 79.4339 153.388 79.457C153.361 79.9743 153.288 80.4882 153.171 80.9927C153.673 82.1795 154.516 83.1907 155.593 83.8986C156.769 84.6541 158.139 85.0543 159.538 85.0512C163.262 85.0512 164.43 83.0512 164.473 78.7719C164.456 78.7048 164.447 78.6363 164.443 78.5674V39.963C164.443 36.226 162.314 35.8753 160.807 35.8753V35.437H171.963V35.8883C171.89 35.8803 171.816 35.8803 171.742 35.8883C171.671 35.8883 171.596 35.8883 171.525 35.8883C171.341 35.8844 171.158 35.9096 170.983 35.963C169.742 36.1968 168.486 37.0864 168.486 39.9338V78.5511C168.486 78.6388 168.469 78.7135 168.469 78.7849C168.499 81.2687 168.924 82.9635 169.989 83.9571C170.707 84.4071 171.505 84.7136 172.34 84.8597C172.753 84.9459 173.174 84.9948 173.596 85.0058C174.866 84.9806 176.106 84.6187 177.19 83.9571C178.301 82.9343 178.723 81.1648 178.723 78.5511V65.4081H186.392Z"
                                    fill="white" />
                                <path
                                    d="M14.9811 120.745H21.4071C22.1901 120.745 24.5661 116.344 25.4301 116.344L24.4041 120.664C23.8371 120.853 22.4061 121.15 21.0291 121.15H9.47307V120.88C10.2561 120.88 11.4171 120.718 11.4171 118.612V104.005C11.4171 101.926 10.2831 101.737 9.47307 101.737V101.494H19.3551C20.7321 101.494 22.1631 101.791 22.7301 101.98L23.7561 106.3C22.8921 106.3 20.5161 101.899 19.7331 101.899H14.3601C13.9551 102.196 13.6311 102.925 13.6311 104.032V110.35H19.7871C20.3001 110.35 20.3541 107.488 20.9211 107.488L22.7031 113.644C22.1361 113.644 20.3001 110.782 19.7871 110.782H13.6311V118.342C13.6311 119.476 14.3061 120.34 14.9811 120.745ZM27.2967 120.88C28.0797 120.88 29.2677 120.718 29.2677 118.612V104.005C29.2677 101.926 28.1337 101.737 27.3237 101.737V101.494H33.4527V101.737C32.6427 101.737 31.5087 101.926 31.5087 104.005V120.745H36.8277C37.6107 120.745 39.9867 116.344 40.8507 116.344L39.8247 120.664C39.2307 120.853 37.8267 121.15 36.4497 121.15H27.2967V120.88ZM49.1234 121.15H42.9674V120.88C43.7504 120.88 44.9384 120.718 44.9384 118.612V104.005C44.9384 101.926 43.7774 101.737 42.9674 101.737V101.494H49.0964V101.737C48.3134 101.737 47.1524 101.926 47.1524 104.005V118.612C47.1524 120.718 48.3404 120.88 49.1234 120.88V121.15ZM54.8919 121.15V120.88C55.7019 120.88 56.8899 120.718 56.8899 118.612V101.899H53.5959C52.8129 101.899 50.4369 106.3 49.5729 106.3L50.5989 101.98C51.1659 101.791 52.5699 101.494 53.9469 101.494H62.2899C63.6939 101.494 65.0979 101.791 65.6649 101.98L66.6909 106.3C65.8269 106.3 63.4509 101.899 62.6679 101.899H59.1039V118.612C59.1039 120.718 60.2649 120.88 61.0749 120.88V121.15H54.8919ZM73.2526 120.745H79.6786C80.4616 120.745 82.8376 116.344 83.7016 116.344L82.6756 120.664C82.1086 120.853 80.6776 121.15 79.3006 121.15H67.7446V120.88C68.5276 120.88 69.6886 120.718 69.6886 118.612V104.005C69.6886 101.926 68.5546 101.737 67.7446 101.737V101.494H77.6266C79.0036 101.494 80.4346 101.791 81.0016 101.98L82.0276 106.3C81.1636 106.3 78.7876 101.899 78.0046 101.899H72.6316C72.2266 102.196 71.9026 102.925 71.9026 104.032V110.35H78.0586C78.5716 110.35 78.6256 107.488 79.1926 107.488L80.9746 113.644C80.4076 113.644 78.5716 110.782 78.0586 110.782H71.9026V118.342C71.9026 119.476 72.5776 120.34 73.2526 120.745ZM97.0003 121.15V120.88C97.8103 120.88 98.9983 120.718 98.9983 118.612V101.899H95.7043C94.9213 101.899 92.5453 106.3 91.6813 106.3L92.7073 101.98C93.2743 101.791 94.6783 101.494 96.0553 101.494H104.398C105.802 101.494 107.206 101.791 107.773 101.98L108.799 106.3C107.935 106.3 105.559 101.899 104.776 101.899H101.212V118.612C101.212 120.718 102.373 120.88 103.183 120.88V121.15H97.0003ZM107.971 111.295C108.646 103.924 114.667 101.035 118.528 101.035C122.416 101.035 127.924 103.924 127.249 111.295C126.682 117.397 121.741 121.582 116.638 121.582C111.589 121.582 107.404 117.397 107.971 111.295ZM124.819 111.295C124.765 104.248 120.094 101.494 117.529 101.494C114.964 101.494 110.401 104.248 110.455 111.295C110.536 118.396 115.153 121.15 117.718 121.15C120.283 121.15 124.9 118.396 124.819 111.295ZM116.26 110.539C117.637 110.62 117.637 110.323 117.907 108.865C118.096 110.62 118.528 110.512 119.527 110.512C118.744 111.025 118.177 113.401 117.826 115.75C117.637 113.968 117.097 110.944 116.26 110.539ZM143.858 121.312L139.835 110.539L135.218 121.312H134.813L129.305 104.032C128.63 101.953 127.442 101.764 126.659 101.764V101.494H132.815V101.764C132.032 101.764 130.925 101.953 131.6 104.032L136.055 117.586L139.538 109.756L137.405 104.032C136.649 101.98 135.542 101.764 134.759 101.764V101.494H143.858L141.05 107.731L144.803 117.991L149.096 104.005C149.798 101.764 149.717 101.71 145.694 101.71V101.467H151.553V101.71C150.743 101.71 150.149 102.277 149.609 104.005L144.263 121.312H143.858ZM140.78 107.002L142.994 102.061H138.647C139.133 102.466 139.349 103.087 139.7 104.032L140.78 107.002ZM158.735 120.745H165.161C165.944 120.745 168.32 116.344 169.184 116.344L168.158 120.664C167.591 120.853 166.16 121.15 164.783 121.15H153.227V120.88C154.01 120.88 155.171 120.718 155.171 118.612V104.005C155.171 101.926 154.037 101.737 153.227 101.737V101.494H163.109C164.486 101.494 165.917 101.791 166.484 101.98L167.51 106.3C166.646 106.3 164.27 101.899 163.487 101.899H158.114C157.709 102.196 157.385 102.925 157.385 104.032V110.35H163.541C164.054 110.35 164.108 107.488 164.675 107.488L166.457 113.644C165.89 113.644 164.054 110.782 163.541 110.782H157.385V118.342C157.385 119.476 158.06 120.34 158.735 120.745ZM176.674 121.15H170.491V120.88C171.274 120.88 172.462 120.718 172.462 118.612V104.032C172.462 101.926 171.301 101.737 170.518 101.737V101.494H178.294C181.372 101.494 184.099 102.277 184.099 106.246C184.099 110.512 180.913 111.538 178.402 112.024C184.018 113.671 181.912 124.579 190.12 124.579V124.822L188.338 124.849C178.456 124.849 182.02 112.105 176.782 112.105H174.676V118.612C174.676 120.718 175.864 120.88 176.674 120.88V121.15ZM174.676 111.052L177.16 111.646C179.563 111.916 181.696 111.187 181.723 106.516C181.723 102.007 179.752 101.899 177.349 101.899H176.458C175.675 101.899 174.676 102.061 174.676 104.032V111.052ZM187.804 104.707C187.804 109.648 200.116 110.242 200.116 115.966C200.116 119.476 196.498 121.582 192.124 121.582C190.882 121.582 186.886 120.961 185.752 120.556L185.833 118.207C188.668 118.207 189.694 121.177 192.124 121.177C195.067 121.177 197.713 119.584 197.713 116.722C197.713 111.808 186.022 111.322 186.022 105.76C186.022 102.925 189.127 101.17 192.097 101.17C193.366 101.17 197.146 101.791 197.848 102.196L197.767 104.518C196.336 104.518 194.554 101.575 192.097 101.575C189.964 101.575 187.804 102.898 187.804 104.707Z"
                                    fill="white" />
                                <path
                                    d="M194.769 93.2198C193.963 93.0607 193.827 92.2944 193.996 91.4275C194.34 89.6938 195.444 88.9795 196.434 89.1743L196.467 88.697C194.268 88.2652 192.369 89.0801 192.048 90.7197C191.817 91.8756 192.259 93.0477 194.171 93.5672C193.301 93.6061 192.333 93.6776 191.324 93.7977C187.876 94.2133 191.402 95.7458 191.402 95.7458C191.681 94.5932 193.908 94.038 195.655 93.775C196.372 93.7633 197.087 93.6894 197.791 93.5542L197.989 91.8886C196.97 91.6905 196.379 93.5379 194.769 93.2198Z"
                                    fill="white" />
                                <path d="M217.149 26.5796H3.00003H1.02599H0V122.331H3.00003V29.5829H217.149V26.5796Z"
                                    fill="white" />
                                <path
                                    d="M333.51 26.5796H331.117H275.623V29.5829H331.117V119.233H334.118V26.5796H333.51Z"
                                    fill="white" />
                                <path opacity="0.5"
                                    d="M172.34 84.8593L171.817 86.1743C170.892 86.1306 169.975 85.9836 169.083 85.736C168.123 85.4396 167.247 84.9187 166.528 84.2165C168.06 83.3301 168.547 78.593 168.476 77.9956V78.5508C168.476 78.6385 168.46 78.7131 168.46 78.7846C168.489 81.2684 168.914 82.9632 169.979 83.9567C170.7 84.4079 171.502 84.7145 172.34 84.8593Z"
                                    fill="url(#paint0_linear_336_3496)" />
                                <path opacity="0.5"
                                    d="M155.573 83.882C155.427 84.0704 155.249 84.2911 155.076 84.5087C154.162 83.8819 153.388 83.0713 152.804 82.1288C152.609 82.6405 152.343 83.1225 152.015 83.5606C152.989 82.3723 153.378 80.08 153.359 79.4404C153.332 79.9577 153.259 80.4716 153.141 80.9762C153.646 82.1642 154.493 83.1755 155.573 83.882Z"
                                    fill="url(#paint1_linear_336_3496)" />
                                <path opacity="0.5"
                                    d="M140.953 84.1581L140.268 84.7003C139.211 84.0294 138.323 83.1253 137.67 82.0575C137.67 82.1159 137.67 82.1581 137.641 82.2165C137.758 81.1061 137.774 79.8789 137.774 79.5444C137.778 79.8715 137.812 80.1975 137.875 80.5185C138.052 81.2357 138.392 81.9024 138.868 82.4665C139.437 83.1703 140.147 83.7466 140.953 84.1581Z"
                                    fill="url(#paint2_linear_336_3496)" />
                                <path opacity="0.5"
                                    d="M54.6565 65.3493L54.1889 66.239C52.1889 66.7942 51.1792 69.265 50.8155 70.5182C50.611 71.1676 50.6402 71.7455 51.1077 72.1708C51.1077 72.1708 47.4129 70.9728 48.6532 67.8916C49.1966 67.0196 49.9634 66.3089 50.874 65.8331C51.8967 65.3071 53.2246 65.2487 54.3643 65.3201C54.4617 65.3493 54.5558 65.3493 54.6565 65.3493Z"
                                    fill="url(#paint3_linear_336_3496)" />
                                <path opacity="0.3"
                                    d="M64.9391 79.0639C64.4423 81.3983 63.202 83.6483 61.1858 84.9341C59.0526 86.2782 56.3351 86.3659 53.8383 85.9276L53.5623 85.8821C53.5461 85.8821 53.5331 85.8821 53.5331 85.8821C51.8805 85.2328 51.5461 84.7263 54.1013 84.697H54.137C54.3253 84.697 54.5169 84.697 54.7052 84.6678C54.8935 84.6386 55.0851 84.6386 55.2766 84.6094C55.4682 84.5802 55.6403 84.5509 55.8156 84.5087C55.9537 84.4814 56.0902 84.4467 56.2247 84.4048C56.6196 84.2957 57.0017 84.1444 57.3643 83.9535C57.5113 83.8959 57.6491 83.8171 57.7734 83.7197C61.8481 81.236 61.3059 74.7521 61.3059 74.7521L64.754 73.4956C65.2657 75.3093 65.3292 77.2202 64.9391 79.0639Z"
                                    fill="url(#paint4_linear_336_3496)" />
                                <path opacity="0.5"
                                    d="M78.9392 86.145C77.1015 86.2197 75.2736 86.2619 73.4911 85.7359C72.0509 85.357 70.7991 84.4643 69.9716 83.2262C69.0949 81.8528 68.832 80.1709 68.832 78.5508V74.0962L72.8645 75.8917V78.5508C72.8645 78.5508 72.8645 78.6839 72.8645 78.8755C72.8444 79.5369 72.9021 80.1983 73.0366 80.8463C73.0658 80.9924 73.095 81.1385 73.1242 81.2976C73.3487 82.4468 73.9691 83.4808 74.8775 84.2197C75.6242 84.7911 76.6308 85.1125 78.0041 85.0087C79.7444 84.8885 79.7574 85.3853 78.9392 86.145Z"
                                    fill="url(#paint5_linear_336_3496)" />
                                <path
                                    d="M86.4588 69.801C86.3419 68.1776 87.0108 65.9049 88.9588 65.8691C87.0465 66.0315 86.4588 68.1776 86.4588 69.801Z"
                                    fill="#CBCBCA" />
                                <path
                                    d="M137.144 76.2815C137.031 74.6581 137.696 72.3853 139.648 72.3496C137.732 72.5119 137.148 74.6581 137.144 76.2815Z"
                                    fill="#CBCBCA" />
                                <path
                                    d="M152.55 76.2815C152.434 74.6581 153.102 72.3853 155.051 72.3496C153.138 72.5119 152.554 74.6581 152.55 76.2815Z"
                                    fill="#CBCBCA" />
                                <path
                                    d="M178.077 85.5088C181.255 83.8302 183.119 80.5704 181.794 77.0347C183.236 80.5444 181.32 83.9308 178.077 85.5088Z"
                                    fill="#CBCBCA" />
                                <path
                                    d="M37.4128 65.4307L37.4517 76.9211C37.4517 78.6451 37.4517 80.3886 37.0167 82.0542C36.8766 82.697 36.5774 83.2942 36.1465 83.7913C35.7835 84.1389 35.3523 84.4076 34.8803 84.5802C33.1876 85.2507 31.3007 85.2379 29.6172 84.5445C29.1817 84.3826 28.7847 84.1316 28.4516 83.8075C27.8964 83.2296 27.6984 82.4081 27.4159 81.6549C27.2362 81.0983 26.9085 80.6011 26.4678 80.2165C26.358 80.1282 26.2368 80.055 26.1074 79.999C25.9321 79.9211 25.8737 79.9016 25.8087 80.0932L25.4256 81.2166L24.4516 84.064C25.5711 85.0255 26.9198 85.682 28.3672 85.9699C29.8082 86.2512 31.2765 86.3678 32.7439 86.3173C35.153 86.2945 37.7829 86.0088 39.494 84.314C40.442 83.3074 41.0663 82.0395 41.2862 80.6743C41.5017 79.3177 41.5811 77.9429 41.5232 76.5704L41.4745 70.4177C41.4745 69.1872 41.4972 67.8203 42.3122 66.9112C42.9972 66.1417 44.0914 65.8625 45.1207 65.8755V65.4307H37.4128Z"
                                    fill="white" />
                                <path
                                    d="M20.0262 65.4307L20.0619 76.9211C20.0619 78.6451 20.0619 80.3886 19.6268 82.0542C19.4853 82.6984 19.1825 83.2961 18.747 83.7913C18.3857 84.1395 17.9554 84.4083 17.484 84.5802C15.7901 85.2505 13.9023 85.2377 12.2177 84.5445C11.7835 84.3817 11.3878 84.1307 11.0553 83.8075C10.5001 83.2296 10.3021 82.4081 10.0163 81.6549C9.83783 81.0985 9.51122 80.6013 9.07153 80.2165C8.96135 80.1287 8.8402 80.0556 8.71113 79.999C8.53256 79.9211 8.47737 79.9016 8.40918 80.0932L8.03255 81.2166L7.05852 84.064C8.17689 85.0254 9.52448 85.6819 10.9709 85.9699C12.413 86.2511 13.8824 86.3677 15.3508 86.3173C17.7599 86.2945 20.3898 86.0088 22.1009 84.314C23.0477 83.3066 23.6719 82.0391 23.8931 80.6743C24.1086 79.3177 24.188 77.9429 24.1301 76.5704L24.0749 70.4177C24.0749 69.1872 24.0977 67.8203 24.9159 66.9112C25.5977 66.1417 26.6951 65.8625 27.7243 65.8755V65.4307H20.0262Z"
                                    fill="white" />
                                <path
                                    d="M22.812 63.4014C23.8314 61.3657 24.7211 60.541 26.7081 59.5832C24.2276 58.6319 23.7178 57.6157 22.812 55.6416C21.7957 57.5475 20.9678 58.4403 18.997 59.5378C20.7795 60.7456 21.6691 61.5702 22.812 63.4014Z"
                                    fill="white" />
                                <path
                                    d="M106.066 85.7004C102.819 84.1257 100.907 80.736 102.345 77.2295C101.024 80.7652 102.888 84.025 106.066 85.7004Z"
                                    fill="#CBCBCA" />
                                <path
                                    d="M41.0784 70.4211C40.5946 68.8529 41.0394 66.895 42.5622 66.0736C42.7667 65.9535 42.9908 65.8756 43.2115 65.7749C41.3089 66.5411 40.6303 68.5119 41.0881 70.4211H41.0784Z"
                                    fill="#CBCBCA" />
                                <path opacity="0.5"
                                    d="M75.9749 35.4204V35.875C74.8515 35.875 73.3612 36.138 72.8645 38.3588V47.3848H68.832V39.9627C68.832 36.2256 66.6858 35.875 65.1956 35.875V35.4366H69.0722V35.4204H75.9749Z"
                                    fill="url(#paint6_linear_336_3496)" />
                                <path opacity="0.5"
                                    d="M171.963 35.4204V35.9042H171.742C171.671 35.9042 171.596 35.9042 171.525 35.9042C171.341 35.9003 171.158 35.9255 170.982 35.9789C169.742 36.2126 168.486 37.1022 168.486 39.9497V48.1576H164.424V39.9627C164.424 36.2256 162.294 35.875 160.788 35.875V35.4366H164.599V35.4204H171.963Z"
                                    fill="url(#paint7_linear_336_3496)" />
                                <path opacity="0.5"
                                    d="M199.739 35.437V36.1286C198.236 36.1286 196.015 36.6546 196.015 42.4696V53.7716H191.801V42.4631C191.801 42.1124 191.801 41.7747 191.772 41.4695C191.554 36.8981 189.742 36.1968 188.327 36.1221C188.223 36.1221 188.135 36.1221 188.035 36.1221V35.45L199.739 35.437Z"
                                    fill="url(#paint8_linear_336_3496)" />
                                <path opacity="0.5"
                                    d="M41.5524 80.353L37.4777 78.4049V72.0444L41.5265 74.0964V74.1484C41.5394 76.2101 41.5524 78.275 41.5524 80.353Z"
                                    fill="url(#paint9_linear_336_3496)" />
                                <path opacity="0.5"
                                    d="M24.049 80.353L19.971 78.4049V72.0444L24.023 74.0964V74.1484C24.036 76.2101 24.049 78.275 24.049 80.353Z"
                                    fill="url(#paint10_linear_336_3496)" />
                            </g>
                            <defs>
                                <linearGradient id="paint0_linear_336_3496" x1="166.81" y1="81.0411" x2="172.122"
                                    y2="83.3236" gradientUnits="userSpaceOnUse">
                                    <stop />
                                    <stop offset="1" stop-color="white" stop-opacity="0" />
                                </linearGradient>
                                <linearGradient id="paint1_linear_336_3496" x1="152.557" y1="81.3366" x2="155.184"
                                    y2="84.4307" gradientUnits="userSpaceOnUse">
                                    <stop />
                                    <stop offset="1" stop-color="white" stop-opacity="0" />
                                </linearGradient>
                                <linearGradient id="paint2_linear_336_3496" x1="136.92" y1="81.2945" x2="140.651"
                                    y2="82.7653" gradientUnits="userSpaceOnUse">
                                    <stop />
                                    <stop offset="1" stop-color="white" stop-opacity="0" />
                                </linearGradient>
                                <linearGradient id="paint3_linear_336_3496" x1="46.8285" y1="74.1546" x2="54.413"
                                    y2="63.9013" gradientUnits="userSpaceOnUse">
                                    <stop />
                                    <stop offset="1" stop-color="white" stop-opacity="0" />
                                </linearGradient>
                                <linearGradient id="paint4_linear_336_3496" x1="63.9423" y1="84.6646" x2="58.2572"
                                    y2="79.0704" gradientUnits="userSpaceOnUse">
                                    <stop />
                                    <stop offset="1" stop-color="white" stop-opacity="0" />
                                </linearGradient>
                                <linearGradient id="paint5_linear_336_3496" x1="68.3027" y1="86.1191" x2="75.1405"
                                    y2="78.7846" gradientUnits="userSpaceOnUse">
                                    <stop />
                                    <stop offset="1" stop-color="white" stop-opacity="0" />
                                </linearGradient>
                                <linearGradient id="paint6_linear_336_3496" x1="70.6177" y1="32.9464" x2="70.4326"
                                    y2="48.8589" gradientUnits="userSpaceOnUse">
                                    <stop />
                                    <stop offset="1" stop-color="white" stop-opacity="0" />
                                </linearGradient>
                                <linearGradient id="paint7_linear_336_3496" x1="166.408" y1="32.7873" x2="166.21"
                                    y2="49.7453" gradientUnits="userSpaceOnUse">
                                    <stop />
                                    <stop offset="1" stop-color="white" stop-opacity="0" />
                                </linearGradient>
                                <linearGradient id="paint8_linear_336_3496" x1="193.931" y1="31.6805" x2="193.648"
                                    y2="56.0152" gradientUnits="userSpaceOnUse">
                                    <stop />
                                    <stop offset="1" stop-color="white" stop-opacity="0" />
                                </linearGradient>
                                <linearGradient id="paint9_linear_336_3496" x1="34.3218" y1="74.0899" x2="43.4908"
                                    y2="77.814" gradientUnits="userSpaceOnUse">
                                    <stop />
                                    <stop offset="1" stop-color="white" stop-opacity="0" />
                                </linearGradient>
                                <linearGradient id="paint10_linear_336_3496" x1="16.8151" y1="74.0899" x2="25.9873"
                                    y2="77.814" gradientUnits="userSpaceOnUse">
                                    <stop />
                                    <stop offset="1" stop-color="white" stop-opacity="0" />
                                </linearGradient>
                                <clipPath id="clip0_336_3496">
                                    <rect width="334.117" height="126.596" fill="white"
                                        transform="translate(0 0.657227)" />
                                </clipPath>
                            </defs>
                        </svg>