<svg width="20" height="18" viewBox="0 0 20 18" fill="none" xmlns="http://www.w3.org/2000/svg">
<path d="M16.0943 3.14643C16.6874 2.93123 16.9818 2.85378 17.1449 2.82608C17.1461 2.87823 17.1449 2.92051 17.1422 2.94825C16.9096 5.39217 15.8906 11.4048 15.3672 14.2026C15.2447 14.8578 15.1507 15.1697 14.5179 14.798C14.1014 14.5532 13.7245 14.2452 13.3207 13.9805C11.9961 13.1121 10.1 11.8189 10.2557 11.8967C8.95162 11.0373 9.4975 10.5111 10.2255 9.8093C10.3434 9.6957 10.466 9.5775 10.5863 9.4525C10.64 9.3967 10.9027 9.1524 11.2731 8.8081C12.4612 7.7035 14.7571 5.56903 14.8151 5.32202C14.8246 5.2815 14.8334 5.13045 14.7436 5.05068C14.6539 4.97092 14.5215 4.9982 14.4259 5.01989C14.2904 5.05064 12.1326 6.4769 7.95243 9.2986C7.33994 9.7192 6.78517 9.9242 6.28811 9.9134L6.29256 9.9156C5.63781 9.6847 4.9849 9.4859 4.32855 9.286C3.89736 9.1546 3.46469 9.0228 3.02904 8.8812C2.92249 8.8466 2.81853 8.8137 2.72083 8.783C7.24781 6.8109 10.263 5.51243 11.7739 4.884C13.9684 3.97124 15.2701 3.44551 16.0943 3.14643ZM18.5169 1.21806C18.2635 1.01244 17.985 0.918071 17.7915 0.871851C17.5917 0.824121 17.4018 0.808761 17.2578 0.811301C16.7814 0.819691 16.2697 0.955181 15.4121 1.26637C14.5373 1.58382 13.193 2.12763 11.0058 3.03736C9.4638 3.67874 6.39388 5.00115 1.80365 7.001C1.40046 7.1622 1.03086 7.3451 0.738837 7.5619C0.469187 7.7622 0.0917272 8.1205 0.0226772 8.6714C-0.0294838 9.0874 0.0918172 9.4714 0.337817 9.7738C0.551977 10.037 0.826347 10.1969 1.03529 10.2981C1.34545 10.4483 1.76276 10.5791 2.12952 10.6941C2.70264 10.8737 3.27444 11.0572 3.84879 11.233C5.62691 11.7773 7.09066 12.2253 8.7012 13.2866C9.8825 14.0651 11.041 14.8775 12.2243 15.6531C12.6559 15.936 13.0593 16.2607 13.5049 16.5224C13.9916 16.8084 14.6104 17.0692 15.3636 16.9998C16.5019 16.8951 17.0941 15.8479 17.3331 14.5703C17.8552 11.7796 18.8909 5.68351 19.1332 3.13774C19.1648 2.80544 19.1278 2.433 19.097 2.25318C19.0653 2.068 18.9684 1.58448 18.5169 1.21806Z" fill="white"/>
</svg>
